<svg version="1.1" xmlns="http://www.w3.org/2000/svg" viewBox="0 0 461 465" width="461" height="465">
  <!-- svg-source:excalidraw -->
  
  <defs>
    <style class="style-fonts">
      @font-face {
        font-family: "Virgil";
        src: url("https://excalidraw.com/Virgil.woff2");
      }
      @font-face {
        font-family: "Cascadia";
        src: url("https://excalidraw.com/Cascadia.woff2");
      }
    </style>
  </defs>
  <g stroke-linecap="round" transform="translate(10 10) rotate(0 220.5 222.5)"><path d="M276.25 55.75 M276.25 55.75 C301.96 80.44, 328.06 114.42, 385.75 167.25 M276.25 55.75 C307.31 86.15, 335.8 118.17, 385.75 167.25 M385.75 167.25 C443.08 219.42, 438.79 222.19, 385.75 278.75 M385.75 167.25 C437.39 223.63, 444.49 222.71, 385.75 278.75 M385.75 278.75 C355.14 309.34, 320.28 341.33, 276.25 389.25 M385.75 278.75 C341.47 321.2, 297.9 367.77, 276.25 389.25 M276.25 389.25 C217.95 448.31, 223.09 446.3, 165.75 389.25 M276.25 389.25 C221.93 442.78, 223.19 447.89, 165.75 389.25 M165.75 389.25 C134.56 359.58, 104.15 326.49, 55.25 278.75 M165.75 389.25 C124.58 348.9, 82.73 309.33, 55.25 278.75 M55.25 278.75 C2.57 221.89, -3.35 219.97, 55.25 167.25 M55.25 278.75 C-0.34 223.48, 4.01 222.83, 55.25 167.25 M55.25 167.25 C100.24 127.03, 136.56 90.82, 165.75 55.75 M55.25 167.25 C97.38 122.86, 141.26 78.55, 165.75 55.75 M165.75 55.75 C221.38 3.93, 224.12 3.95, 276.25 55.75 M165.75 55.75 C221.07 -0.38, 225.34 4.09, 276.25 55.75" stroke="#000000" stroke-width="1" fill="none"></path></g><g stroke-linecap="round" transform="translate(221.81799606255368 193.31899435901948) rotate(0 11.42324765191222 10.514008911943534)"><path d="M18.4 3.33 C19.82 4.35, 20.8 6.43, 21.12 8.92 C21.43 11.42, 21.86 16.49, 20.28 18.3 C18.7 20.11, 14.13 19.8, 11.64 19.76 C9.14 19.72, 7.1 18.74, 5.32 18.06 C3.55 17.37, 1.76 17.52, 0.97 15.64 C0.17 13.77, 0.07 9.26, 0.56 6.81 C1.05 4.37, 1.46 2.2, 3.9 0.97 C6.33 -0.26, 12.2 -1.09, 15.18 -0.55 C18.15 -0.01, 20.29 3.27, 21.73 4.22 C23.16 5.18, 23.99 4.81, 23.79 5.19 M1.45 5.22 C3.2 3.49, 9.61 1.73, 12.54 0.98 C15.47 0.24, 17.11 -0.78, 19.02 0.75 C20.93 2.28, 23.65 8.19, 24.01 10.16 C24.38 12.13, 22.31 11.06, 21.19 12.56 C20.08 14.07, 19.4 17.86, 17.33 19.2 C15.25 20.53, 11.35 20.71, 8.74 20.59 C6.12 20.47, 3.25 19.96, 1.66 18.48 C0.07 16.99, -1.13 14.43, -0.8 11.69 C-0.46 8.95, 2.92 3.07, 3.67 2.04 C4.43 1.02, 3.29 5.43, 3.75 5.54" stroke="#000000" stroke-width="2" fill="none"></path></g><g stroke-linecap="round"><g transform="translate(231.94150049220707 214.23046724136145) rotate(0 1.3579382420291495 10.790625056900666)"><path d="M2.44 -0.82 C2.91 3.35, 1.85 19.04, 1.16 23.02 M0.32 -3.73 C0.77 0.87, 0.85 20.54, 0.16 25.31" stroke="#000000" stroke-width="2" fill="none"></path></g></g><mask></mask><g stroke-linecap="round"><g transform="translate(230.9204537435994 240.3762786404028) rotate(0 4.796620976305007 6.483132775659357)"><path d="M2.28 -2.47 C3.46 -0.15, 8.58 10.1, 9.52 13.12 M0.07 2.36 C0.61 5.02, 4.73 12.69, 6.97 15.44" stroke="#000000" stroke-width="2" fill="none"></path></g></g><mask></mask><g stroke-linecap="round"><g transform="translate(229.48457925212278 239.3697476510058) rotate(0 -3.2635204149864876 7.928170163984959)"><path d="M-0.57 -2.42 C-2.76 0.42, -9.74 12.18, -10.84 14.58 M4.31 2.43 C2.79 5.99, -3.55 16.4, -5.63 18.28" stroke="#000000" stroke-width="2" fill="none"></path></g></g><mask></mask><g stroke-linecap="round"><g transform="translate(218.00498077031625 228.71661545481186) rotate(0 6.2972337261645634 -5.457057025559919)"><path d="M-2.2 0.13 C0.36 -1.3, 12.47 -9.51, 14.8 -11.05 M1.79 -2.26 C4.17 -3.22, 12.13 -8.1, 13.35 -8.78" stroke="#000000" stroke-width="2" fill="none"></path></g></g><mask></mask><g stroke-linecap="round"><g transform="translate(231.03036526717233 219.68096635923052) rotate(0 6.180772240602323 5.814371822003608)"><path d="M1.46 -2.5 C3.16 -0.72, 7.02 8.43, 8 10.81 M-1.2 2.31 C1.63 4.51, 11.19 12, 13.56 14.13" stroke="#000000" stroke-width="2" fill="none"></path></g></g><mask></mask><g transform="translate(222.35824449112397 196.0175682130723) rotate(0 12 5.5)"><text x="0" y="8" font-family="Virgil, Segoe UI Emoji" font-size="6.27621576113108px" fill="#000000" text-anchor="start" style="white-space: pre;" direction="ltr">｡◕‿◕｡</text></g><g stroke-linecap="round"><g transform="translate(264.20887485692106 231.30089742872195) rotate(0 66.5360132823763 0.3954876064785253)"><path d="M-0.43 -0.9 C22.01 -1, 111.39 0.08, 133.5 0.03 M1.55 1.24 C23.97 1.3, 110.6 1.91, 132.79 1.62" stroke="#000000" stroke-width="1" fill="none"></path></g><g transform="translate(264.20887485692106 231.30089742872195) rotate(0 66.5360132823763 0.3954876064785253)"><path d="M103.11 12.68 C110.56 8.52, 114.27 8.75, 132.49 2.91 M104.21 11.41 C115.27 7.29, 126.67 3.29, 133.71 1.02" stroke="#000000" stroke-width="1" fill="none"></path></g><g transform="translate(264.20887485692106 231.30089742872195) rotate(0 66.5360132823763 0.3954876064785253)"><path d="M103.08 -7.84 C110.64 -7.76, 114.36 -3.29, 132.49 2.91 M104.17 -9.11 C115.44 -5.25, 126.85 -1.28, 133.71 1.02" stroke="#000000" stroke-width="1" fill="none"></path></g></g><mask></mask><g stroke-linecap="round"><g transform="translate(384.3359869813994 226.68180101853739) rotate(0 -0.1773195122488005 4.846076977227369)"><path d="M-0.9 0.45 C-1.06 2.01, -0.18 7.3, -0.29 8.95 M0.83 -0.36 C0.47 1.37, -1.17 8.6, -1.18 10.05" stroke="#000000" stroke-width="1" fill="none"></path></g></g><mask></mask><g transform="translate(387.00080373493734 234.32723729472764) rotate(0 3.250262569993083 -2.651733385125141)" stroke="none"><path fill="#000000" d="M -0.80,-2.30 Q -0.80,-2.30 -0.04,-2.62 0.71,-2.94 1.71,-3.35 2.70,-3.76 2.69,-2.36 2.67,-0.97 1.56,-0.87 0.45,-0.78 -0.48,-1.34 -1.42,-1.90 -2.18,-2.87 -2.93,-3.84 -3.01,-3.98 -3.08,-4.11 -3.19,-4.51 -3.29,-4.90 -3.30,-5.31 -3.31,-5.71 -3.22,-6.11 -3.13,-6.51 -2.94,-6.87 -2.76,-7.24 -2.50,-7.54 -2.23,-7.85 -1.90,-8.09 -1.57,-8.33 -1.19,-8.48 -0.82,-8.63 -0.41,-8.69 -0.01,-8.74 0.38,-8.70 0.79,-8.66 1.17,-8.52 1.55,-8.39 1.89,-8.16 2.23,-7.94 2.51,-7.64 2.78,-7.34 2.98,-6.98 3.17,-6.62 3.39,-5.57 3.61,-4.51 3.87,-3.46 4.13,-2.41 2.97,-3.14 1.81,-3.87 2.84,-4.41 3.87,-4.95 4.93,-5.07 6.00,-5.20 5.86,-5.17 5.73,-5.15 6.17,-5.23 6.61,-5.31 7.06,-5.28 7.51,-5.26 7.93,-5.12 8.36,-4.99 8.75,-4.76 9.13,-4.53 9.45,-4.21 9.76,-3.89 10.00,-3.51 10.23,-3.12 10.36,-2.70 10.49,-2.27 10.52,-1.82 10.55,-1.37 10.47,-0.93 10.39,-0.49 10.20,-0.08 10.02,0.32 9.74,0.67 9.47,1.02 9.11,1.30 8.76,1.58 8.35,1.76 7.94,1.94 6.83,-1.61 5.71,-5.17 6.15,-5.25 6.59,-5.33 7.04,-5.31 7.49,-5.28 7.92,-5.15 8.34,-5.01 8.73,-4.78 9.11,-4.55 9.43,-4.23 9.75,-3.91 9.98,-3.53 10.21,-3.15 10.34,-2.72 10.48,-2.29 10.50,-1.84 10.53,-1.40 10.45,-0.95 10.37,-0.51 10.19,-0.10 10.00,0.29 9.72,0.65 9.45,1.00 9.10,1.28 8.74,1.55 8.33,1.74 7.92,1.92 6.82,-1.62 5.72,-5.16 6.16,-5.24 6.60,-5.32 7.05,-5.30 7.50,-5.27 7.93,-5.14 8.36,-5.00 8.74,-4.77 9.12,-4.54 9.44,-4.22 9.76,-3.91 9.99,-3.52 10.22,-3.14 10.36,-2.71 10.49,-2.28 10.52,-1.83 10.54,-1.39 10.46,-0.95 10.38,-0.50 10.20,-0.10 10.01,0.30 9.74,0.66 9.46,1.01 9.11,1.29 8.75,1.56 8.34,1.75 7.94,1.93 6.84,1.94 5.74,1.94 4.47,1.97 3.19,2.01 3.33,0.79 3.46,-0.41 3.44,-0.17 3.42,0.05 3.36,0.51 3.31,0.96 3.14,1.39 2.98,1.82 2.71,2.19 2.45,2.57 2.11,2.87 1.76,3.17 1.36,3.38 0.95,3.59 0.50,3.70 0.06,3.81 -0.39,3.81 -0.85,3.80 -1.29,3.69 -1.74,3.58 -2.14,3.37 -2.55,3.15 -2.89,2.85 -3.23,2.54 -3.49,2.16 -3.75,1.78 -3.91,1.35 -4.07,0.92 -4.12,0.47 -4.17,0.01 -3.67,-1.26 -3.16,-2.55 -3.22,-2.54 -3.28,-2.52 -3.21,-2.98 -3.14,-3.44 -2.96,-3.86 -2.79,-4.29 -2.51,-4.66 -2.24,-5.03 -1.89,-5.33 -1.53,-5.63 -1.12,-5.83 -0.71,-6.03 -0.26,-6.13 0.19,-6.23 0.65,-6.21 1.11,-6.20 1.55,-6.08 2.00,-5.96 2.40,-5.73 2.80,-5.50 3.14,-5.19 3.47,-4.87 3.73,-4.49 3.98,-4.10 4.13,-3.66 4.28,-3.23 4.32,-2.77 4.37,-2.31 3.99,-1.21 3.62,-0.12 3.43,0.63 3.25,1.38 3.02,1.78 2.79,2.18 2.47,2.52 2.15,2.85 1.75,3.10 1.36,3.35 0.92,3.50 0.48,3.64 0.02,3.68 -0.44,3.72 -0.89,3.64 -1.35,3.57 -1.78,3.39 -2.21,3.20 -2.58,2.93 -2.95,2.65 -3.24,2.29 -3.54,1.93 -3.73,1.51 -3.93,1.09 -4.03,0.63 -4.12,0.18 -4.10,-0.28 -4.08,-0.74 -3.95,-1.19 -3.82,-1.63 -3.77,-0.03 -3.72,1.57 -3.94,0.46 -4.16,-0.63 -3.60,-0.99 -3.03,-1.35 -3.40,-1.85 -3.77,-2.36 -3.96,-2.95 -4.15,-3.55 -4.14,-4.17 -4.13,-4.80 -3.92,-5.38 -3.71,-5.97 -3.32,-6.46 -2.93,-6.95 -2.41,-7.29 -1.89,-7.64 -1.28,-7.79 -0.68,-7.95 -0.05,-7.90 0.56,-7.86 1.13,-7.62 1.71,-7.38 2.18,-6.96 2.65,-6.55 2.96,-6.01 3.27,-5.47 3.40,-4.86 3.52,-4.24 3.44,-3.62 3.36,-3.00 3.09,-2.44 2.82,-1.88 2.38,-1.44 1.94,-0.99 1.39,-0.71 0.83,-0.42 0.21,-0.33 -0.40,-0.24 -1.01,-0.36 -1.63,-0.47 -2.17,-0.77 -2.72,-1.07 -3.14,-1.53 -3.56,-2.00 -3.81,-2.57 -4.07,-3.14 -4.12,-3.76 -4.18,-4.38 -4.03,-4.99 -3.89,-5.60 -3.56,-6.13 -3.22,-6.66 -2.74,-7.05 -2.26,-7.45 -1.67,-7.67 -1.09,-7.89 -0.47,-7.91 0.15,-7.93 0.75,-7.76 1.35,-7.58 1.86,-7.22 2.37,-6.86 2.37,-6.86 2.37,-6.86 2.74,-4.36 3.12,-1.87 3.19,-0.24 3.25,1.38 3.02,1.78 2.79,2.18 2.47,2.52 2.15,2.85 1.75,3.10 1.36,3.35 0.92,3.50 0.48,3.64 0.02,3.68 -0.44,3.72 -0.89,3.64 -1.35,3.57 -1.78,3.39 -2.21,3.21 -2.58,2.93 -2.95,2.65 -3.24,2.29 -3.54,1.93 -3.73,1.51 -3.93,1.09 -4.03,0.63 -4.12,0.18 -4.10,-0.28 -4.08,-0.74 -3.95,-1.18 -3.82,-1.63 -3.55,-2.08 -3.28,-2.52 -3.21,-2.98 -3.14,-3.44 -2.96,-3.86 -2.79,-4.29 -2.52,-4.66 -2.24,-5.03 -1.89,-5.33 -1.54,-5.63 -1.12,-5.83 -0.71,-6.03 -0.26,-6.13 0.18,-6.23 0.65,-6.21 1.11,-6.20 1.55,-6.08 2.00,-5.96 2.40,-5.73 2.80,-5.50 3.14,-5.19 3.47,-4.87 3.73,-4.49 3.98,-4.10 4.13,-3.66 4.28,-3.23 4.32,-2.77 4.37,-2.31 4.22,-2.71 4.08,-3.10 4.05,-1.54 4.02,0.01 3.34,1.17 2.66,2.32 3.04,1.19 3.42,0.05 3.36,0.51 3.31,0.96 3.14,1.39 2.98,1.82 2.71,2.19 2.45,2.57 2.11,2.87 1.76,3.17 1.36,3.38 0.95,3.59 0.50,3.70 0.06,3.81 -0.39,3.81 -0.85,3.80 -1.29,3.69 -1.74,3.58 -2.14,3.37 -2.55,3.15 -2.89,2.85 -3.23,2.54 -3.49,2.16 -3.74,1.78 -3.91,1.35 -4.07,0.92 -4.12,0.47 -4.17,0.01 -4.12,-0.52 -4.07,-1.07 -3.67,-2.12 -3.27,-3.17 -2.32,-3.96 -1.37,-4.75 -0.33,-5.05 0.70,-5.35 1.77,-5.41 2.84,-5.47 4.28,-5.32 5.72,-5.16 6.16,-5.24 6.60,-5.32 7.05,-5.30 7.50,-5.27 7.93,-5.14 8.36,-5.00 8.74,-4.77 9.12,-4.54 9.44,-4.22 9.76,-3.91 9.99,-3.52 10.22,-3.14 10.36,-2.71 10.49,-2.28 10.52,-1.83 10.54,-1.39 10.46,-0.95 10.38,-0.50 10.20,-0.10 10.01,0.30 9.74,0.66 9.46,1.01 9.11,1.29 8.75,1.56 8.35,1.75 7.94,1.93 6.82,-1.62 5.71,-5.17 6.15,-5.25 6.59,-5.33 7.04,-5.31 7.49,-5.28 7.92,-5.15 8.34,-5.01 8.73,-4.78 9.11,-4.55 9.43,-4.23 9.75,-3.92 9.98,-3.53 10.21,-3.15 10.34,-2.72 10.48,-2.29 10.50,-1.84 10.53,-1.40 10.45,-0.95 10.37,-0.51 10.19,-0.10 10.00,0.29 9.73,0.65 9.45,1.00 9.10,1.28 8.74,1.55 8.33,1.74 7.92,1.92 6.83,-1.61 5.73,-5.15 6.17,-5.23 6.61,-5.31 7.06,-5.28 7.51,-5.26 7.93,-5.12 8.36,-4.99 8.75,-4.76 9.13,-4.53 9.45,-4.21 9.76,-3.89 10.00,-3.51 10.23,-3.12 10.36,-2.70 10.49,-2.27 10.52,-1.82 10.55,-1.37 10.47,-0.93 10.39,-0.49 10.20,-0.08 10.02,0.32 9.74,0.67 9.47,1.02 9.11,1.30 8.76,1.58 8.35,1.76 7.94,1.94 7.25,2.03 6.56,2.11 5.38,2.22 4.21,2.33 3.09,2.46 1.97,2.59 0.78,2.27 -0.41,1.94 -1.59,-0.02 -2.77,-2.00 -2.93,-3.06 -3.08,-4.11 -3.19,-4.51 -3.29,-4.90 -3.30,-5.31 -3.31,-5.71 -3.22,-6.11 -3.13,-6.51 -2.94,-6.87 -2.76,-7.23 -2.50,-7.54 -2.23,-7.85 -1.90,-8.09 -1.57,-8.33 -1.20,-8.48 -0.82,-8.63 -0.41,-8.69 -0.01,-8.74 0.38,-8.70 0.79,-8.66 1.17,-8.52 1.55,-8.39 1.89,-8.16 2.23,-7.94 2.51,-7.64 2.78,-7.34 2.98,-6.98 3.17,-6.62 3.17,-6.63 3.17,-6.64 2.30,-7.43 1.44,-8.22 2.85,-7.17 4.26,-6.13 5.27,-5.55 6.28,-4.96 6.99,-4.16 7.71,-3.36 7.34,-1.62 6.97,0.12 5.91,0.68 4.85,1.25 3.62,1.55 2.39,1.86 1.59,2.08 0.80,2.30 0.51,2.37 0.22,2.43 -0.06,2.42 -0.35,2.41 -0.64,2.33 -0.92,2.26 -1.18,2.11 -1.44,1.97 -1.65,1.77 -1.87,1.57 -2.03,1.32 -2.19,1.07 -2.29,0.79 -2.38,0.52 -2.41,0.22 -2.44,-0.06 -2.39,-0.35 -2.35,-0.64 -2.24,-0.92 -2.13,-1.19 -1.95,-1.43 -1.78,-1.66 -1.55,-1.85 -1.33,-2.04 -1.06,-2.17 -0.80,-2.30 -0.80,-2.30 L -0.80,-2.30 Z"></path></g></svg>