<svg version="1.1" xmlns="http://www.w3.org/2000/svg" viewBox="0 0 234 282.5" width="234" height="282.5">
  <!-- svg-source:excalidraw -->
  
  <defs>
    <style class="style-fonts">
      @font-face {
        font-family: "Virgil";
        src: url("https://excalidraw.com/Virgil.woff2");
      }
      @font-face {
        font-family: "Cascadia";
        src: url("https://excalidraw.com/Cascadia.woff2");
      }
    </style>
  </defs>
  <g stroke-linecap="round" transform="translate(10 10) rotate(0 107 111)"><path d="M32 0 M32 0 C61.05 -0.45, 92.98 -1.06, 182 0 M32 0 C73.9 1.29, 116.26 1.15, 182 0 M182 0 C204.84 1.58, 212.99 9.89, 214 32 M182 0 C201.42 1.49, 214.01 9.1, 214 32 M214 32 C214.99 84.59, 217 140.74, 214 190 M214 32 C212.69 91.97, 214.16 152.54, 214 190 M214 190 C215.83 212.86, 202.22 222.76, 182 222 M214 190 C212.28 212.63, 203.38 221.98, 182 222 M182 222 C143.23 221.21, 109.73 221.69, 32 222 M182 222 C124.14 220.75, 68.19 221.32, 32 222 M32 222 C11.28 220.6, -0.01 211.69, 0 190 M32 222 C9.71 221.85, -1.21 210.7, 0 190 M0 190 C-1.23 128.45, -3.45 65.65, 0 32 M0 190 C1.42 150.97, 0.27 113.09, 0 32 M0 32 C0.81 11.68, 8.86 1.45, 32 0 M0 32 C-0.75 11.81, 9.61 -0.73, 32 0" stroke="#000000" stroke-width="1" fill="none"></path></g><g stroke-linecap="round" transform="translate(96 100) rotate(0 24 22.5)"><path d="M29.71 -0.03 C34.48 1.22, 39.99 6.41, 42.97 10.6 C45.95 14.79, 47.82 20.57, 47.59 25.11 C47.36 29.64, 45.3 34.66, 41.6 37.8 C37.91 40.95, 30.8 43.36, 25.4 43.96 C20 44.55, 13.15 44.15, 9.21 41.37 C5.26 38.59, 2.98 32.17, 1.73 27.29 C0.49 22.4, -0.3 16.29, 1.72 12.05 C3.75 7.81, 8.18 3.5, 13.86 1.85 C19.55 0.21, 31.31 1.35, 35.85 2.18 C40.39 3.01, 41.23 6.35, 41.11 6.85 M27.57 0.53 C32.15 1.17, 38.14 5.2, 41.75 8.74 C45.36 12.28, 49.03 17.19, 49.22 21.79 C49.41 26.39, 46.26 32.36, 42.91 36.35 C39.55 40.34, 33.99 44.87, 29.07 45.7 C24.14 46.54, 17.96 44.03, 13.36 41.34 C8.77 38.66, 3.56 34.07, 1.5 29.6 C-0.55 25.12, -0.52 18.75, 1.03 14.5 C2.59 10.26, 6.09 6.6, 10.81 4.14 C15.53 1.67, 26.38 0.3, 29.35 -0.29 C32.32 -0.87, 28.67 -0.07, 28.65 0.65" stroke="#000000" stroke-width="1" fill="none"></path></g><g transform="translate(32 251.5) rotate(0 89 10.5)"><text x="0" y="15" font-family="Virgil, Segoe UI Emoji" font-size="16px" fill="#000000" text-anchor="start" style="white-space: pre;" direction="ltr">tap to mute / unmute</text></g><g stroke-linecap="round"><g transform="translate(118.29389181899978 246) rotate(0 0.16411948172276425 -45.85038790365107)"><path d="M0.36 -0.15 C0.25 -15.01, -0.93 -74.66, -0.87 -89.97 M-0.92 -1.27 C-0.65 -16.37, 1.05 -76.55, 1.25 -91.55" stroke="#000000" stroke-width="1" fill="none"></path></g><g transform="translate(118.29389181899978 246) rotate(0 0.16411948172276425 -45.85038790365107)"><path d="M10.65 -65.04 C10.12 -70.3, 3.94 -78.93, 0.67 -92.01 M10.86 -62.3 C8.39 -70.41, 6.07 -78.27, 0.74 -91.94" stroke="#000000" stroke-width="1" fill="none"></path></g><g transform="translate(118.29389181899978 246) rotate(0 0.16411948172276425 -45.85038790365107)"><path d="M-9.87 -65.48 C-4.64 -70.68, -5.06 -79.19, 0.67 -92.01 M-9.66 -62.74 C-6.38 -70.67, -2.98 -78.4, 0.74 -91.94" stroke="#000000" stroke-width="1" fill="none"></path></g></g><mask></mask></svg>