<svg version="1.1" xmlns="http://www.w3.org/2000/svg" viewBox="0 0 344.545994065282 389.4999999999999" width="344.545994065282" height="389.4999999999999">
  <!-- svg-source:excalidraw -->
  
  <defs>
    <style class="style-fonts">
      @font-face {
        font-family: "Virgil";
        src: url("https://excalidraw.com/Virgil.woff2");
      }
      @font-face {
        font-family: "Cascadia";
        src: url("https://excalidraw.com/Cascadia.woff2");
      }
    </style>
  </defs>
  <rect x="0" y="0" width="344.545994065282" height="389.4999999999999" fill="#ffffff"></rect><g stroke-linecap="round" transform="translate(83.82690405539074 10) rotate(0 91.36993076162219 152.03956478733926)"><path d="M32 0 M32 0 C59.96 -1.04, 80.14 -0.33, 150.74 0 M32 0 C74.83 -0.47, 120.03 -1.54, 150.74 0 M150.74 0 C169.11 3.56, 186.35 12.64, 182.74 32 M150.74 0 C176.03 2.31, 184.82 11.82, 182.74 32 M182.74 32 C181.07 96.25, 187.13 166.83, 182.74 272.08 M182.74 32 C183.91 109.65, 184.22 190.39, 182.74 272.08 M182.74 272.08 C182.48 292.1, 174.55 306.81, 150.74 304.08 M182.74 272.08 C181.5 297.33, 171.57 301.95, 150.74 304.08 M150.74 304.08 C127.41 305.83, 100.29 302.97, 32 304.08 M150.74 304.08 C108.9 305.31, 68.14 306, 32 304.08 M32 304.08 C10.46 303.09, 0.4 292.62, 0 272.08 M32 304.08 C13.84 308.56, -3.86 291.74, 0 272.08 M0 272.08 C-1.39 202.97, -0.28 133.48, 0 32 M0 272.08 C-0.92 197.87, -1.15 127.37, 0 32 M0 32 C2.51 10.53, 13.41 1.53, 32 0 M0 32 C4.24 14.17, 11.29 2.04, 32 0" stroke="#000000" stroke-width="1" fill="none"></path></g><g stroke-linecap="round" transform="translate(102.83184965380815 273.5108803165183) rotate(0 7.309594460929759 7.309594460929759)"><path d="M7.28 -0.68 C8.98 -0.95, 11.04 -0.44, 12.37 0.56 C13.71 1.55, 15.19 3.68, 15.31 5.27 C15.43 6.87, 13.85 8.63, 13.1 10.13 C12.34 11.63, 12.14 13.59, 10.78 14.26 C9.43 14.93, 6.48 14.67, 4.98 14.14 C3.49 13.61, 2.73 12.26, 1.82 11.09 C0.92 9.92, -0.54 8.8, -0.44 7.13 C-0.34 5.46, 1.27 2.39, 2.41 1.08 C3.55 -0.22, 5.66 -0.55, 6.38 -0.7 C7.1 -0.86, 6.54 -0.15, 6.72 0.14 M7.14 -1.05 C8.33 -0.89, 10.21 0.96, 11.61 2.23 C13 3.5, 15.37 5.07, 15.5 6.57 C15.63 8.06, 13.4 9.85, 12.37 11.18 C11.34 12.51, 10.75 13.91, 9.32 14.55 C7.89 15.2, 5.29 15.89, 3.8 15.05 C2.31 14.21, 0.71 11.24, 0.37 9.51 C0.03 7.78, 1.01 5.86, 1.75 4.68 C2.49 3.49, 3.81 2.99, 4.82 2.4 C5.82 1.81, 7.05 1.57, 7.76 1.15 C8.48 0.73, 9.15 0.12, 9.12 -0.12" stroke="#000000" stroke-width="1" fill="none"></path></g><g stroke-linecap="round" transform="translate(133.53214638971315 273.1454005934718) rotate(0 7.309594460929759 7.309594460929759)"><path d="M11.08 -0.02 C12.55 0.36, 13.39 1.8, 14.07 3.21 C14.75 4.63, 15.45 6.96, 15.16 8.47 C14.87 9.99, 13.76 11.4, 12.32 12.29 C10.88 13.18, 8.23 13.82, 6.51 13.81 C4.79 13.79, 3.2 13.08, 2 12.21 C0.8 11.34, -0.55 9.95, -0.69 8.58 C-0.83 7.22, 0.06 5.42, 1.17 4 C2.29 2.59, 4.04 0.48, 6.01 0.08 C7.99 -0.32, 11.81 1.11, 13.02 1.6 C14.23 2.09, 13.47 2.83, 13.28 3.03 M5.91 0.56 C7.26 0.31, 10.53 0.93, 11.88 1.93 C13.24 2.92, 13.85 5.25, 14.05 6.52 C14.26 7.8, 13.78 8.19, 13.09 9.58 C12.41 10.97, 11.29 14.26, 9.94 14.88 C8.58 15.5, 6.45 14.02, 4.97 13.3 C3.48 12.57, 2.08 11.48, 1.03 10.54 C-0.03 9.6, -1.51 8.85, -1.37 7.66 C-1.23 6.47, 0.74 4.58, 1.88 3.38 C3.01 2.19, 4.75 0.96, 5.45 0.51 C6.16 0.05, 5.79 0.65, 6.12 0.65" stroke="#000000" stroke-width="1" fill="none"></path></g><g stroke-linecap="round" transform="translate(162.03956478733926 273.8763600395648) rotate(0 7.309594460929759 7.309594460929759)"><path d="M8.98 0.78 C10.37 1.11, 12.24 2.72, 13.23 4 C14.23 5.28, 15.07 7.03, 14.93 8.45 C14.79 9.88, 13.8 11.34, 12.38 12.53 C10.96 13.72, 8.09 15.53, 6.41 15.6 C4.72 15.66, 3.31 14.03, 2.29 12.93 C1.27 11.83, 0.47 10.64, 0.28 9.01 C0.09 7.38, 0.35 4.73, 1.14 3.14 C1.94 1.55, 3.47 0, 5.08 -0.53 C6.68 -1.06, 9.77 -0.34, 10.76 -0.03 C11.75 0.27, 11.28 1.14, 11.01 1.29 M9.07 0.6 C10.37 0.88, 13.03 2.25, 13.7 3.71 C14.37 5.17, 13.43 7.95, 13.09 9.35 C12.76 10.76, 12.71 11.21, 11.67 12.15 C10.63 13.1, 8.46 14.9, 6.84 15.04 C5.23 15.18, 3.23 14.22, 1.95 13 C0.67 11.79, -0.5 9.57, -0.86 7.77 C-1.21 5.97, -0.99 3.22, -0.16 2.22 C0.66 1.21, 2.52 1.78, 4.11 1.72 C5.69 1.67, 8.33 2.34, 9.32 1.9 C10.32 1.46, 10.1 -0.94, 10.07 -0.91" stroke="#000000" stroke-width="1" fill="none"></path></g><g stroke-linecap="round" transform="translate(195.6636993076163 273.1454005934718) rotate(0 7.309594460929816 7.309594460929759)"><path d="M4.64 1.3 C5.7 0.56, 6.71 -0.58, 8.24 -0.22 C9.77 0.13, 12.65 2.19, 13.81 3.42 C14.97 4.65, 15.38 5.67, 15.21 7.15 C15.04 8.63, 13.95 11.22, 12.79 12.3 C11.64 13.38, 9.77 13.46, 8.29 13.61 C6.8 13.77, 5.3 13.98, 3.89 13.24 C2.48 12.5, 0.34 10.71, -0.17 9.18 C-0.67 7.65, 0 5.62, 0.84 4.06 C1.69 2.49, 4.16 0.54, 4.9 -0.21 C5.64 -0.97, 5.39 -0.6, 5.26 -0.45 M10.65 -0.83 C12.06 -0.38, 12.67 3.68, 13.51 5.14 C14.36 6.6, 16.22 6.56, 15.73 7.93 C15.23 9.31, 12.12 12.17, 10.52 13.39 C8.92 14.61, 7.45 15.5, 6.13 15.24 C4.82 14.98, 3.68 12.92, 2.63 11.83 C1.57 10.73, 0.14 10.01, -0.19 8.68 C-0.51 7.36, -0.16 5.1, 0.69 3.88 C1.54 2.66, 3.28 1.73, 4.93 1.35 C6.58 0.96, 9.53 1.81, 10.61 1.59 C11.69 1.36, 11.51 -0.2, 11.41 -0.01" stroke="#000000" stroke-width="1" fill="none"></path></g><g stroke-linecap="round" transform="translate(227.82591493570726 272.41444114737885) rotate(0 7.309594460929816 7.309594460929759)"><path d="M10.55 0.31 C12.14 1.03, 13.84 3.11, 14.39 4.57 C14.95 6.04, 14.3 7.73, 13.89 9.12 C13.47 10.51, 13.02 12.08, 11.89 12.94 C10.75 13.8, 8.59 14.36, 7.07 14.3 C5.56 14.25, 3.88 13.55, 2.81 12.61 C1.74 11.66, 0.97 10.23, 0.64 8.63 C0.31 7.04, -0.13 4.59, 0.83 3.03 C1.79 1.47, 4.52 -0.6, 6.42 -0.72 C8.32 -0.83, 11.13 1.79, 12.25 2.34 C13.37 2.89, 13.16 2.65, 13.13 2.6 M7.97 -0.12 C9.14 -0.57, 9.62 -0.62, 10.66 0.46 C11.7 1.55, 13.59 4.84, 14.19 6.38 C14.79 7.92, 14.9 8.22, 14.25 9.72 C13.59 11.22, 11.78 14.59, 10.25 15.38 C8.73 16.16, 6.85 15.39, 5.11 14.43 C3.37 13.48, 0.45 11.1, -0.2 9.64 C-0.85 8.18, 0.88 7.24, 1.23 5.67 C1.57 4.09, 0.99 1.12, 1.88 0.2 C2.77 -0.71, 5.42 0.39, 6.59 0.16 C7.76 -0.06, 8.61 -1.42, 8.9 -1.13" stroke="#000000" stroke-width="1" fill="none"></path></g><g stroke-linecap="round"><g transform="translate(45.311572700296665 339.4893903049167) rotate(0 29.015541033190004 -24.20820014073351)"><path d="M0.45 -0.92 C3.31 -6.37, 8.97 -25, 18.3 -32.78 C27.64 -40.55, 50.11 -45.2, 56.46 -47.56 M-0.77 1.22 C1.85 -4.03, 7.56 -22.8, 17.49 -31.27 C27.42 -39.75, 52.38 -46.7, 58.8 -49.63" stroke="#000000" stroke-width="1" fill="none"></path></g><g transform="translate(45.311572700296665 339.4893903049167) rotate(0 29.015541033190004 -24.20820014073351)"><path d="M41.13 -35.51 C48.98 -43.2, 56.35 -48.76, 60.71 -51.56 M42.26 -36.53 C47.7 -40.23, 50.93 -43.76, 58.66 -49.92" stroke="#000000" stroke-width="1" fill="none"></path></g><g transform="translate(45.311572700296665 339.4893903049167) rotate(0 29.015541033190004 -24.20820014073351)"><path d="M36.1 -49.09 C45.94 -51.4, 55.3 -51.57, 60.71 -51.56 M37.24 -50.11 C43.93 -50.37, 48.45 -50.42, 58.66 -49.92" stroke="#000000" stroke-width="1" fill="none"></path></g></g><mask></mask><g stroke-linecap="round"><g transform="translate(92.50833255619534 350.81252534997327) rotate(0 26.084427271991387 -27.997349650327408)"><path d="M-0.8 0.88 C2.57 -2.35, 11.56 -10.43, 20.53 -19.72 C29.49 -29.01, 47.34 -48.83, 52.97 -54.84 M0.97 0.3 C4.17 -3.23, 11.05 -11.83, 19.56 -21.36 C28.07 -30.89, 46.13 -51.28, 52.05 -56.88" stroke="#000000" stroke-width="1" fill="none"></path></g><g transform="translate(92.50833255619534 350.81252534997327) rotate(0 26.084427271991387 -27.997349650327408)"><path d="M43.86 -35.1 C47.1 -42.51, 49.64 -47.31, 51.38 -55.21 M41.75 -34.32 C45.33 -42.34, 48.5 -48.26, 52.03 -57.8" stroke="#000000" stroke-width="1" fill="none"></path></g><g transform="translate(92.50833255619534 350.81252534997327) rotate(0 26.084427271991387 -27.997349650327408)"><path d="M32.09 -46.42 C39.09 -50.11, 45.41 -51.27, 51.38 -55.21 M29.98 -45.64 C37.17 -50.11, 43.92 -52.58, 52.03 -57.8" stroke="#000000" stroke-width="1" fill="none"></path></g></g><mask></mask><g stroke-linecap="round"><g transform="translate(165.00498481202249 351.51974592366264) rotate(0 1.4441314637015807 -29.063542806483753)"><path d="M0.05 -0.86 C-0.17 -6.26, -2.3 -23.59, -1.43 -33.35 C-0.57 -43.11, 4.44 -54.99, 5.26 -59.43 M-1.39 1.31 C-1.69 -3.9, -3.04 -22.42, -1.96 -32.35 C-0.89 -42.29, 4.17 -53.81, 5.07 -58.31" stroke="#000000" stroke-width="1" fill="none"></path></g><g transform="translate(165.00498481202249 351.51974592366264) rotate(0 1.4441314637015807 -29.063542806483753)"><path d="M4.89 -43.67 C4.56 -47.34, 5.08 -53.35, 4 -57.88 M5.6 -44.5 C6.27 -49.57, 5.92 -53.36, 4.88 -58.58" stroke="#000000" stroke-width="1" fill="none"></path></g><g transform="translate(165.00498481202249 351.51974592366264) rotate(0 1.4441314637015807 -29.063542806483753)"><path d="M-4.12 -46.36 C-1.84 -49.25, 1.3 -54.47, 4 -57.88 M-3.41 -47.19 C0.13 -51.49, 2.66 -54.41, 4.88 -58.58" stroke="#000000" stroke-width="1" fill="none"></path></g></g><mask></mask><g stroke-linecap="round"><g transform="translate(241.56451191310703 348.5692019078367) rotate(0 -18.30778864473416 -27.191755722459874)"><path d="M0.55 0.58 C-4.67 -2.93, -24.99 -12.48, -31.12 -21.42 C-37.25 -30.36, -35.55 -47.57, -36.21 -53.07 M-0.62 -0.16 C-6.06 -3.5, -26.27 -11.18, -32.36 -20.32 C-38.46 -29.45, -36.83 -49.43, -37.17 -54.96" stroke="#000000" stroke-width="1" fill="none"></path></g><g transform="translate(241.56451191310703 348.5692019078367) rotate(0 -18.30778864473416 -27.191755722459874)"><path d="M-30.51 -39.94 C-34.28 -44.64, -33.79 -48.06, -37.84 -54.75 M-31.87 -38.94 C-33.58 -44.87, -35.65 -48.47, -36.88 -55.11" stroke="#000000" stroke-width="1" fill="none"></path></g><g transform="translate(241.56451191310703 348.5692019078367) rotate(0 -18.30778864473416 -27.191755722459874)"><path d="M-42.05 -39.89 C-42.17 -44.66, -38.01 -48.09, -37.84 -54.75 M-43.41 -38.89 C-41.51 -44.76, -39.99 -48.38, -36.88 -55.11" stroke="#000000" stroke-width="1" fill="none"></path></g></g><mask></mask><g stroke-linecap="round"><g transform="translate(289.0465072469019 323.86894118904047) rotate(0 -25.19435860641636 -17.494347874402024)"><path d="M-1.14 0.69 C-8.24 0.17, -34.71 1.99, -42.93 -4.1 C-51.15 -10.2, -48.97 -30.54, -50.46 -35.87 M0.46 0.01 C-6.73 -0.21, -35.04 3.34, -43.6 -2.49 C-52.15 -8.32, -49.45 -29.48, -50.85 -34.97" stroke="#000000" stroke-width="1" fill="none"></path></g><g transform="translate(289.0465072469019 323.86894118904047) rotate(0 -25.19435860641636 -17.494347874402024)"><path d="M-43.5 -19.74 C-45.88 -23.57, -48.9 -29.46, -52.17 -33.68 M-43.94 -20.69 C-47.49 -26.42, -49.51 -32.17, -50.74 -34.63" stroke="#000000" stroke-width="1" fill="none"></path></g><g transform="translate(289.0465072469019 323.86894118904047) rotate(0 -25.19435860641636 -17.494347874402024)"><path d="M-54.34 -19 C-53.73 -22.93, -53.78 -29.02, -52.17 -33.68 M-54.78 -19.95 C-54.14 -25.93, -51.97 -31.97, -50.74 -34.63" stroke="#000000" stroke-width="1" fill="none"></path></g></g><mask></mask><g transform="translate(10 330.5257171117705) rotate(0 13.888229475766593 7.675074183976278)"><text x="0" y="10.350148367952523" font-family="Virgil, Segoe UI Emoji" font-size="11.695351137487636px" fill="#000000" text-anchor="start" style="white-space: pre;" direction="ltr">home</text></g><g transform="translate(72.86251236399607 355.01285855588526) rotate(0 19.370425321463927 7.675074183976278)"><text x="0" y="10.350148367952523" font-family="Virgil, Segoe UI Emoji" font-size="11.695351137487636px" fill="#000000" text-anchor="start" style="white-space: pre;" direction="ltr">search</text></g><g transform="translate(146.68941641938682 352.08902077151333) rotate(0 19.73590504451039 7.675074183976278)"><text x="0" y="10.350148367952523" font-family="Virgil, Segoe UI Emoji" font-size="11.695351137487636px" fill="#000000" text-anchor="start" style="white-space: pre;" direction="ltr">create</text></g><g transform="translate(224.90207715133533 348.7997032640949) rotate(0 35.45153313550941 15.3501483679525)"><text x="0" y="10.350148367952523" font-family="Virgil, Segoe UI Emoji" font-size="11.695351137487634px" fill="#000000" text-anchor="start" style="white-space: pre;" direction="ltr">notifications</text><text x="0" y="25.700296735905045" font-family="Virgil, Segoe UI Emoji" font-size="11.695351137487634px" fill="#000000" text-anchor="start" style="white-space: pre;" direction="ltr"></text></g><g transform="translate(297.99802176063304 313.713649851632) rotate(0 18.273986152324483 7.675074183976278)"><text x="0" y="10.350148367952523" font-family="Virgil, Segoe UI Emoji" font-size="11.695351137487638px" fill="#000000" text-anchor="start" style="white-space: pre;" direction="ltr">profile</text></g><g stroke-linecap="round" transform="translate(238.0593471810089 27.543026706231444) rotate(0 7.309594460929816 7.309594460929773)"><path d="M7.63 -0.44 C9.07 -0.78, 10.74 -0.4, 12.03 0.57 C13.32 1.53, 15.04 3.66, 15.37 5.36 C15.7 7.06, 14.94 9.36, 14.01 10.77 C13.08 12.18, 11.35 13.19, 9.81 13.83 C8.26 14.47, 6.06 14.97, 4.73 14.59 C3.41 14.21, 2.81 13.07, 1.87 11.56 C0.93 10.05, -0.93 7.19, -0.91 5.54 C-0.89 3.88, 0.67 2.56, 2 1.61 C3.32 0.67, 5.87 0.16, 7.05 -0.12 C8.24 -0.4, 8.9 -0.33, 9.11 -0.07 M6.26 -0.49 C7.85 -0.51, 12.47 2.08, 13.65 3.13 C14.83 4.19, 13.32 4.56, 13.31 5.85 C13.31 7.15, 14.02 9.36, 13.61 10.9 C13.21 12.43, 12.28 14.55, 10.89 15.07 C9.5 15.59, 7.18 14.61, 5.25 14.02 C3.33 13.43, 0 12.93, -0.68 11.54 C-1.37 10.15, 0.69 7.16, 1.15 5.68 C1.61 4.21, 0.99 3.79, 2.08 2.69 C3.16 1.58, 6.46 -0.41, 7.65 -0.95 C8.83 -1.49, 9.11 -0.72, 9.18 -0.54" stroke="#000000" stroke-width="1" fill="none"></path></g><g stroke-linecap="round"><g transform="translate(205.6681624315122 85.98622695521811) rotate(0 15.915322562566246 -19.129083854259562)"><path d="M-0.7 1 C0.19 -2.52, 0.56 -14.36, 6.1 -21.07 C11.64 -27.78, 28.27 -36.23, 32.53 -39.26 M1.13 0.47 C1.79 -2.91, -0.1 -13.49, 5.11 -19.94 C10.31 -26.39, 27.88 -35.16, 32.37 -38.23" stroke="#000000" stroke-width="1" fill="none"></path></g><g transform="translate(205.6681624315122 85.98622695521811) rotate(0 15.915322562566246 -19.129083854259562)"><path d="M23.79 -26.26 C25.07 -28.99, 28.93 -34.53, 31.7 -38.08 M22.42 -25.94 C24.75 -29.68, 27.28 -32.63, 31.99 -37.85" stroke="#000000" stroke-width="1" fill="none"></path></g><g transform="translate(205.6681624315122 85.98622695521811) rotate(0 15.915322562566246 -19.129083854259562)"><path d="M18.34 -35.44 C21.61 -34.8, 27.44 -37.01, 31.7 -38.08 M16.97 -35.11 C20.85 -36.26, 24.91 -36.64, 31.99 -37.85" stroke="#000000" stroke-width="1" fill="none"></path></g></g><mask></mask><g transform="translate(179.58259149357082 96.61869436201778) rotate(0 27.776458951533186 7.67507418397625)"><text x="0" y="10.350148367952523" font-family="Virgil, Segoe UI Emoji" font-size="11.695351137487636px" fill="#000000" text-anchor="start" style="white-space: pre;" direction="ltr">Messages</text></g></svg>