<?xml version="1.0" encoding="UTF-8" standalone="no"?>
<!-- Generator: Adobe Illustrator 16.0.0, SVG Export Plug-In . SVG Version: 6.00 Build 0)  -->

<svg
   version="1.1"
   x="0px"
   y="0px"
   width="600px"
   height="600px"
   viewBox="0 0 600 600"
   style="enable-background:new 0 0 600 600;"
   xml:space="preserve"
   id="svg80"
   sodipodi:docname="you-simpsons_06.svg"
   inkscape:version="1.1.2 (0a00cf5339, 2022-02-04)"
   xmlns:inkscape="http://www.inkscape.org/namespaces/inkscape"
   xmlns:sodipodi="http://sodipodi.sourceforge.net/DTD/sodipodi-0.dtd"
   xmlns="http://www.w3.org/2000/svg"
   xmlns:svg="http://www.w3.org/2000/svg"><defs
   id="defs84" /><sodipodi:namedview
   id="namedview82"
   pagecolor="#ffffff"
   bordercolor="#666666"
   borderopacity="1.0"
   inkscape:pageshadow="2"
   inkscape:pageopacity="0.0"
   inkscape:pagecheckerboard="0"
   showgrid="false"
   inkscape:zoom="0.88"
   inkscape:cx="299.43182"
   inkscape:cy="300.56818"
   inkscape:window-width="1366"
   inkscape:window-height="693"
   inkscape:window-x="259"
   inkscape:window-y="1080"
   inkscape:window-maximized="1"
   inkscape:current-layer="svg80" />

<g
   id="Layer_1">
	<g
   id="g77">
		<path
   d="M536.549,325.778c-0.785-1.036-2.335-2.272-5.267-2.272c-2.54,0-5.664,0.921-9.294,2.74    c0.01-0.364-0.042-0.675-0.097-0.893c-0.693-2.77-4.961-4.629-8.512-4.629c-0.668,0-1.304,0.063-1.9,0.189    c0.076-0.537,0.021-1.083-0.175-1.612c-0.685-1.857-2.88-3.011-5.73-3.011c-2.028,0-6.146,0.615-10.944,4.74l-0.48,0.412    l-1.724-1.003c-23.857-12.729-47.688-38.325-59.768-52.451l-1.448-1.693c-0.23-5.005-1.086-8.288-1.149-8.526l-0.222-0.818    c0.432-0.339,0.83-0.697,1.188-1.079c1.673-1.788,2.2-3.634,2.347-4.868l0.037-0.306l2.822,0.001    c0.067,0.003,0.135,0.005,0.203,0.005c1.53,0,3.121-0.915,4.053-2.331c0.834-1.269,0.969-2.667,0.371-3.837    c-0.429-0.837-1.377-1.808-3.451-2.353c0.188-0.683,0.808-1.435,1.799-2.175l0.43-0.321c0.184,0.018,0.364,0.031,0.541,0.031    c0.6,0,1.157-0.104,1.658-0.312c0.881-0.351,1.6-1.004,2.146-1.812l0.689-0.232c5.195-1.749,12.24-2.752,19.331-2.752    c3.744,0,7.371,0.273,10.78,0.813c0.55,0.087,1.12,0.131,1.693,0.131c0.001,0,0,0,0.001,0c5.231,0,10.72-3.633,12.767-8.451    c1.435-3.375,0.932-6.85-1.363-9.667c1.592-7.897-0.158-15.322-5.086-21.526c-0.593-0.746-1.232-1.466-1.906-2.165l0.039-0.042    c2.169-2.366,3.465-5.303,3.854-8.73l0.052-0.46c3.233-0.599,5.824-1.966,7.725-4.094c2.242-2.511,3.427-6.061,3.427-10.266    c0-2.497-0.678-4.849-1.867-6.91l0.097-0.074c1.636-1.253,3.382-4.808,2.406-8.225c-0.387-1.354-1.249-2.893-3.087-4.117    l0.226-0.825c4.765-17.374,11.966-43.63-18.456-61.475c-4.038-2.369-15.36-6.848-29.313-6.848c-9.297,0-18.063,1.967-26.022,5.831    c-23.676,10.913-28.389,43.621-28.974,63.463c-0.8-0.871-2.05-2.227-2.946-3.199c-2.085-2.75-6.147-5.521-10.983-5.521    c-2.413,0-4.796,0.686-7.082,2.039l-0.2,0.118l-0.02-0.025c-5.504-6.985-10.783-15.489-16.372-24.492    c-10.56-17.009-22.527-36.288-39.816-51.316l-0.269-0.233c1.159-2.381,1.747-5.061,1.747-8.025c0-3.174-1.051-5.687-3.124-7.469    c-2.52-2.167-6.452-3.221-12.023-3.221c-1.413,0-2.852,0.068-4.271,0.179l-2-1.264C274.169,36.24,256.572,30,241.332,30    c-13.701,0-25.87,5.002-36.168,14.867c-13.831,13.249-21.826,30.974-21.386,47.415c0.272,10.159,3.836,18.691,10.036,24.024    l1.963,1.689c0.854,2.788,2.117,5.365,3.936,7.457c2.942,3.381,7.028,5.096,12.146,5.096c0.165,0,0.33-0.002,0.496-0.005    c-1.299,7.295-2.242,13.943-0.796,17.945c2.693,7.271,7.13,8.985,10.378,9.142c0.178,0.009,0.358,0.013,0.537,0.013    c7.664,0,15.484-7.475,17.406-11.363l0.002-0.004c4.214-6.664,5.14-13.806,5.793-21.341c36.909,21.79,74.167,60.108,79.459,65.641    l-0.381,0.687c-0.469,0.846-0.813,1.709-1.072,2.518c-0.557,1.347-0.699,2.699-0.731,3.422    c-17.364-4.346-41.516-8.863-67.122-9.058c-8.573-0.065-19.859,0.819-19.859,0.819c-3.059,0.52-5.689,1.886-7.447,3.927    c-1.539,1.787-2.221,3.872-1.921,5.872l0.007,0.046c-8.439,1.578-41.979,8.729-61.062,25.768l-2.378,2.124    c-2.611,0.715-6.222,2.049-9.293,4.438c-14.022,11.464-23.176,28.139-27.986,50.975c-0.02,0.096-0.048,0.219-0.081,0.363    c-0.083,0.37-0.194,0.859-0.301,1.419l-1.062,0.502c-17.948,8.479-30.639,22.205-38.797,41.962    c-6.637,16.07-10.235,35.881-11.323,62.294c-0.832,12.038-1.248,24.361-1.245,36.642l-0.025-0.026l0.044,4.725    c0.071,7.632,0.299,13.17,0.422,15.69l-0.977,0.8c-4.484,3.678-7.429,6.495-8.753,8.375c-0.67,0.952-2.241,3.181-1.136,6.088    c1.204,3.167,5.509,8.002,28.775,13.545c3.693,5.895,12.534,9.255,24.462,9.255c10.135,0,20.375-2.482,24.348-5.903    c5.081-4.375,5.526-14.536,5.004-22.29l-0.058-0.863c2.082-1.187,4.167-2.47,6.254-3.874l0.876-0.59l-0.07-1.054    c-0.299-4.465-0.547-8.866-0.736-13.084l-0.083-1.847l0.002-0.001l-0.042-1.075c-1.374-35.036,1.862-47.51,2.887-50.498    c0.004-0.012,0.008-0.022,0.011-0.033c11.026,5.17,24.483,11.259,37.464,11.259c2.236,0,4.424-0.184,6.502-0.542l1.372-0.238    c36.87,33.517,83.203,35.764,121.798,37.637c9.64,0.468,18.785,0.911,27.118,1.83l0.011,0.281    c0.777,20.612-0.436,42.934-1.589,58.028l-0.065,0.858l0.001,0.001l-0.118,1.485c-1.007,12.625-2.03,21.193-2.04,21.279    l-0.092,0.76l0.477,0.6c0.202,0.254,1.589,1.967,4.06,4.376l-0.269,0.644c-3.896,9.339-9.583,26.363-3.91,35.465    c5.26,8.416,18.747,13.645,35.199,13.645c11.313,0,23.034-2.555,33.005-7.193l1.111-0.518l-0.053-1.226    c-0.076-1.726-0.012-3.575,0.139-4.644c1.108,0.367,2.995,1.203,4.709,2.111l1.081,0.573l0.944-0.779    c3.203-2.643,19.184-16.172,19.168-23.061c-0.006-2.645-1.4-5.137-4.146-7.417c0.104-0.064,0.208-0.124,0.312-0.188l0.7-0.479    c2.152-7.014,4.157-15.929,5.796-25.43l0.699-4.054l-0.033,0.021c6.555-41.298,6.738-94.878,0.319-115.483    c-8.111-25.104-29.335-41.752-63.079-49.516c1.605-1.763,5.652-6.354,10.59-13.066l0.035,0.024    c33.831,23.441,66.007,38.191,98.364,45.093c10.653,2.272,11.029,2.534,13.959,4.567c0.229,0.158,0.471,0.326,0.732,0.505    c3.461,2.636,6.979,4.028,10.178,4.028h0.001c3.364,0,6.268-1.529,7.766-4.091c1.124-1.921,1.213-4.102,0.232-5.845    c-1.608-2.814-3.387-4.446-4.816-5.758c-1.827-1.677-2.397-2.281-2.245-3.901c0.156-2.276,5.389-6.149,9.594-9.262    c5.555-4.111,10.803-7.994,11.983-12.177C538.29,329.144,537.443,326.96,536.549,325.778z"
   id="path5" />
		<path
   style="fill:#636363;"
   d="M112.098,464.307c-23.707,0-37.47-15.356-38.044-16.011l-0.348-0.395    c-2.985,2.447-6.883,5.834-8.417,8.011c-1.776,2.522-5.941,9.167,27.329,16.976c7.044,13.155,39.273,9.723,46.425,3.564    c4.571-3.937,4.842-13.771,4.371-20.777C132.821,461.402,122.32,464.307,112.098,464.307z"
   id="path7" />
		<path
   style="fill:#636363;"
   d="M434.486,528.856c-12.781,7.563-25.622,11.401-38.201,11.401c-21.977,0-37.851-11.442-45.68-18.661    c-3.575,8.571-9.338,25.3-4.048,33.787c8.486,13.58,40.313,17.654,65.876,5.761c0,0-0.27-6.185,0.833-6.693    c1.103-0.51,6.705,2.46,6.705,2.46s18.516-15.272,18.502-21.643C438.468,532.682,436.637,530.514,434.486,528.856z"
   id="path9" />
		<g
   id="g17">
			<path
   style="fill:#4273DE;"
   d="M112.646,446.723c-2.23,0-4.487-0.138-6.764-0.437c-11.583-1.526-21.934-6.978-30.874-16.233     l0.423,17.034c0,0,29.069,33.1,74.985,2.207c-0.222-3.317-0.563-9.995-0.742-13.605     C141.391,440.473,127.691,446.723,112.646,446.723z"
   id="path11" />
			<path
   style="fill:#4273DE;"
   d="M442.208,382.799c-9.421-29.157-36.092-42.779-63.828-48.766     c-17.394-3.754-34.878-3.519-55.525,0.646l-0.378-1.794c0.202-0.043,20.94-4.111,36.152-3.309     c-0.486-2.712-2.067-8.756-3.785-13.905l-2.558-2.456c-28.249-25.895-84.512-71.117-143.934-83.035l-1.858-0.365     c-9.287-1.753-18.439-2.642-27.204-2.642c-4.157,0-8.31,0.2-12.345,0.595c0,0-6.854,0.857-11.911,4.789     c-7.731,6.321-20.966,19.61-27.353,49.933c-0.149,0.708-0.675,2.739-0.7,4.55c-0.454,5.669-0.735,14.96,0.789,25.478     l-1.814,0.262c-1.623-11.201-1.23-21.045-0.729-26.726c-37.464,17.7-47.208,57.403-49.075,102.726     c-0.996,14.424-1.26,27.351-1.242,37.345l0.029,1.178c8.96,9.849,19.418,15.614,31.17,17.165     c17.648,2.329,34.35-5.442,43.463-10.836c-0.012-0.251-0.019-0.396-0.019-0.396c-1.63-41.548,3.163-51.338,3.051-51.391     c-9.552-4.485-17.789-8.308-22.94-7.083l-0.424-1.783c5.842-1.39,14.498,2.677,24.52,7.383     c13.109,6.158,29.3,13.755,44.177,11.182c-7.469-7.041-14.533-15.397-21.044-25.348l1.534-1.003     c38.373,58.645,96.431,61.461,143.08,63.725c25.915,1.258,48.296,2.344,61.441,12.959l-1.151,1.426     c-7.55-6.096-18.439-8.943-31.417-10.511c0.765,20.296-0.366,42.19-1.593,58.237c4.394,4.251,13.098,11.604,25.018,16.539     c15.432,6.388,39.455,9.842,67.766-8.565C448.369,457.534,448.568,403.215,442.208,382.799z"
   id="path13" />
			<path
   style="fill:#4273DE;"
   d="M405.492,514.298c-2.061,0.191-4.118,0.287-6.172,0.287c-8.894,0-17.709-1.792-26.284-5.353     c-11.218-4.657-19.656-11.413-24.432-15.855c-1.021,12.815-2.047,21.354-2.047,21.354s35.476,44.643,88.945,11.372     c2.211-7.206,4.095-15.6,5.658-24.663C429.352,508.87,417.378,513.192,405.492,514.298z"
   id="path15" />
		</g>
		<g
   id="g29">
			<path
   style="fill:#FFFFFF;"
   d="M428.289,258.245c0,0-3.31,1.783-9.052,2.396c-1.979,9.673-5.353,19.592-10.097,29.636     c-4.337,9.179-9.307,17.344-13.896,24.046C438.914,297.97,428.289,258.245,428.289,258.245z"
   id="path19" />
			<path
   style="fill:#FFFFFF;"
   d="M240.204,190.618c-7.75-0.644-12.36,4.068-11.79,7.871c6.976-1.591,19.952-3.251,28.229-3.353     C252.216,193.326,246,191.099,240.204,190.618z"
   id="path21" />
			<path
   style="fill:#FFFFFF;"
   d="M370.916,145.874l16.444,21.196c0.921-3.389,2.429-10.45,0.199-16.51     C386.415,147.449,379.233,140.951,370.916,145.874z"
   id="path23" />
			<path
   style="fill:#FFFFFF;"
   d="M408.12,198.438c-1.992,11.768-7.25,21.386-7.503,21.845l-1.604-0.887     c0.063-0.116,6.616-13.263,7.392-23.799C408.472,171.335,390.352,153,390.352,153s-0.104-0.154-0.293-0.412     c1.392,6.815-1.234,16.368-1.234,16.368s-7.176,29.177-31.415,39.629c3.109,1.342,10.266,4.825,10.266,4.825l-0.851,1.624     c0,0-13.568-6.573-20.898-9.153c-23.396-8.237-62.165-17.247-98.225-15.737c5.967,1.565,15.399,5.482,15.822,5.67     c50.783,22.366,90.649,100.46,96.973,133.753c9.146,0.478,18.313,2.684,18.313,2.684S445.502,262.835,408.12,198.438z"
   id="path25" />
			<path
   style="fill:#FFFFFF;"
   d="M332.347,199.706l-7.573-2.042c0,0,0.13-2.888,1.584-5.513L332.347,199.706z"
   id="path27" />
		</g>
		<path
   style="fill:#F7D629;"
   d="M213.068,221.525c-0.573-2.601,0.876-5.871,1.062-6.271l1.664,0.769    c-0.374,0.813-1.132,2.921-1.02,4.558c5.8-2.921,12.298-3.564,12.75-3.606l0.168,1.826c-0.159,0.015-14.627,1.459-18.979,9.582    c56.225,11.277,110.173,51.728,144.813,83.481c-13.541-37.638-48.424-95.734-90.742-114.372c-0.17-0.075-0.67-0.284-1.398-0.58    l-4.72,0.058c-8.432,0.103-21.205,1.793-27.843,3.307c0,0-40.722,6.62-62.054,25.667c13.322-1.303,26.752-0.443,40.066,2.07    C208.165,225.21,210.467,223.103,213.068,221.525z"
   id="path31" />
		<g
   id="g37">
			<path
   style="fill:#F7D629;"
   d="M195.521,92.043l1.793,0.381c-0.047,0.221-4.59,22.199,3.782,31.824     c2.739,3.148,6.639,4.64,11.591,4.45c0.079-0.435,0.158-0.871,0.239-1.313c2.264-12.385,4.829-26.423-0.406-35.147l1.572-0.943     c5.591,9.318,2.959,23.716,0.637,36.42c-1.508,8.25-2.932,16.042-1.452,20.135c1.882,5.082,4.826,7.758,8.747,7.948     c6.675,0.32,14.416-6.627,16.23-10.369l0.051-0.092c4.426-6.971,5.063-14.686,5.736-22.854     c0.425-5.147,0.864-10.471,2.239-16.042c2.769-11.216,9.139-17.283,13.69-20.87c7.748-6.107,13.889-5.978,20.391-5.837     c2.8,0.059,5.694,0.122,8.816-0.333c16.177-2.356,24.041-8.598,24.041-19.08c0-2.652-0.813-4.641-2.485-6.079     c-5.047-4.341-16.791-2.563-23.807-1.5c-2.886,0.437-4.97,0.753-6.029,0.593l0.274-1.813c0.784,0.12,2.96-0.21,5.48-0.592     c1.825-0.276,3.87-0.584,6.002-0.834c-33.197-20.989-63.202-25.957-86.222-3.905c-23.939,22.932-26.552,55.711-11.423,68.726     C192.934,104.536,195.376,92.723,195.521,92.043z"
   id="path33" />
			<path
   style="fill:#F7D629;"
   d="M368.323,145.523c-16.041-20.356-29.792-52.821-55.952-75.559     c-3.746,5.801-11.411,9.574-22.929,11.252c-3.272,0.477-6.244,0.414-9.119,0.352c-6.433-0.138-11.986-0.256-19.217,5.444     c-4.339,3.42-10.411,9.2-13.045,19.869c-1.34,5.428-1.773,10.677-2.192,15.753c-0.007,0.09-0.015,0.18-0.022,0.271     c40.592,23.719,81.272,67.096,81.272,67.096l8.224,10.57c4.952,1.459,8.776,2.729,11.192,3.58     c2.427,0.854,5.493,2.124,8.529,3.449l1.619-0.698c20.881-9.005,28.744-32.791,30.129-37.548L368.323,145.523z"
   id="path35" />
		</g>
		<g
   id="g57">
			<path
   style="fill:#DEBD84;"
   d="M434.467,243.51c-5.407-0.083-10.003-0.036-13.181,0.027c-0.032,1.028-0.08,2.059-0.146,3.093     c-0.256,3.984-0.773,8.026-1.535,12.112c0.076-0.008,0.152-0.016,0.227-0.025c2.21-0.292,3.992-0.756,5.273-1.175     c2.289-0.818,3.74-1.872,4.656-2.852c1.388-1.482,1.785-2.99,1.893-3.89h-2.227v-1.833l6.857,0.002     c0.984,0.071,2.115-0.571,2.756-1.544c0.228-0.347,0.712-1.247,0.277-2.098C439.005,244.715,437.957,243.663,434.467,243.51z"
   id="path39" />
			<path
   style="fill:#DEBD84;"
   d="M431.825,241.646c0.874,0.007,1.771,0.018,2.695,0.032c0.431,0.019,0.827,0.054,1.204,0.097     c0.294-1.128,1.154-2.184,2.445-3.15c-0.932-0.325-1.883-0.839-2.747-1.46C433.82,238.432,432.57,239.912,431.825,241.646z"
   id="path41" />
			<path
   style="fill:#DEBD84;"
   d="M486.003,217.931c7.967-34.321-52.391-49.279-74.503-17.165     c3.652,6.937,6.285,14.183,7.904,21.691c20.33-16.814,41.905-13.43,52.042-8.325c5.22,2.628,8.207,5.926,7.797,8.606     l-0.049,0.316l-0.235,0.218c-1.876,1.735-3.883,2.489-5.963,2.236c-0.121-0.015-0.238-0.038-0.355-0.059     c0.168,0.41,0.262,0.857,0.262,1.327c0,1.938-1.576,3.514-3.514,3.514c-0.971,0-1.844-0.404-2.479-1.044     c-0.362,0.031-0.749,0.064-1.155,0.098c-0.52,1.32-1.803,2.257-3.305,2.257c-1.267,0-2.377-0.669-3.007-1.67     c-0.293,0.032-0.59,0.066-0.891,0.102c-0.483,1.428-1.834,2.459-3.423,2.459c-1.219,0-2.297-0.608-2.951-1.535     c-0.512,0.091-1.024,0.188-1.538,0.289c-0.495,1.107-1.604,1.883-2.895,1.883c-0.763,0-1.465-0.272-2.013-0.723     c-0.427,0.12-0.851,0.245-1.271,0.375c0.119,0.988-0.018,2.015-0.344,2.942c7.92-2.667,20.094-3.725,30.935-2.009     C483.047,234.982,492.877,225.06,486.003,217.931z"
   id="path43" />
			<path
   style="fill:#FFFFFF;"
   d="M425.838,222.796l0.133-0.733l0.744-0.021c0.578-0.016,1.112-0.015,1.605-0.014     c2.859,0.006,3.459,0.007,3.681-2.709l0.123-1.506l1.279,0.805c0.753,0.474,4.659,2.637,7.623-1.361l0.405-0.546l1.206,0.433     c4.251,1.53,5.533,1.991,9.057-0.357l0.683-0.456l0.527,0.629c0.263,0.311,6.505,7.56,13.563,2.633l0.771-0.538l0.518,0.785     c0.022,0.034,2.346,3.479,5.468,3.852c1.427,0.169,2.844-0.342,4.221-1.523c-0.073-1.554-2.344-4.142-6.822-6.397     c-4.269-2.15-10.658-3.976-18.142-3.976c-9.779,0-21.429,3.124-32.663,12.713c0.126,0.663,0.245,1.327,0.355,1.993     C424.673,225.936,425.4,225.221,425.838,222.796z"
   id="path45" />
			<circle
   style="fill:#FFFFFF;"
   cx="469.389"
   cy="226.778"
   r="2.189"
   id="circle47" />
			<path
   style="fill:#FFFFFF;"
   d="M452.839,228.879c0-1.266,1.025-2.292,2.291-2.292l0,0c1.266,0,2.292,1.026,2.292,2.292l0,0     c0,1.266-1.026,2.292-2.292,2.292l0,0C453.864,231.17,452.839,230.145,452.839,228.879L452.839,228.879z"
   id="path49" />
			<path
   style="fill:#FFFFFF;"
   d="M460.223,228.052c0-1.23,0.998-2.228,2.228-2.228l0,0c1.23,0,2.229,0.998,2.229,2.228l0,0     c0,1.23-0.998,2.228-2.229,2.228l0,0C461.221,230.279,460.223,229.282,460.223,228.052L460.223,228.052z"
   id="path51" />
			<path
   style="fill:#FFFFFF;"
   d="M445.9,229.961c0-1.02,0.826-1.846,1.846-1.846l0,0c1.02,0,1.847,0.826,1.847,1.846l0,0     c0,1.02-0.827,1.846-1.847,1.846l0,0C446.727,231.807,445.9,230.98,445.9,229.961L445.9,229.961z"
   id="path53" />
			<path
   style="fill:#EF5A52;"
   d="M428.332,241.633l-6.975,0.039v-3.403c0,0,6.083-10.058,11.966-9.937     c1.786,0.018,3.856,1.439,4.716,3.476s3.469,1.591,1.655-1.846c5.061,0.191,3.787,6.62,1.375,7.562     c-2.059,0.869-6.499-1.928-7.391-4.315c-1.082-2.706-3.66,0.478-1.368,1.251C429.287,238.045,428.332,241.633,428.332,241.633z"
   id="path55" />
		</g>
		<g
   id="g63">
			<path
   style="fill:#F7D629;"
   d="M472.521,183.261l2.103-2.172c2.843-2.935,4.156-5.075,4.259-6.939     c0.05-0.906-0.121-2.359-2.185-4.512c-2.253-2.421-4.01-2.699-5.137-2.699c-1.116,0-2.391,0.321-4.01,1.01l-3.057,1.346     c-0.055,0.027-0.107,0.054-0.162,0.082c-0.651,0.328-1.322,0.665-2.016,1l-0.019-0.039c-4.955,3.002-10.211,4.805-14.245,4.805     c-0.271,0-0.531-0.008-0.785-0.024c-11.567-0.735-19.964-8.804-19.964-19.186c0-7.23,3.884-15.344,12.56-17.171l0.063-0.012     c1.066-0.187,2.13-0.281,3.159-0.281c5.938,0,10.394,3.053,15.111,6.286c2.759,1.89,5.611,3.844,9.005,5.396l0.438,0.2     c1.009,0.284,2.453-0.087,3.791-1.018c1.855-1.29,3.628-3.75,3.04-6.785l1.8-0.348c0.755,3.899-1.465,7.019-3.793,8.638     c-1.343,0.934-2.751,1.423-4.021,1.446c0.55,2.402,0.557,5.15,0.196,7.714c2.919-2.837,7.012-4.541,11.471-4.541     c5.358,0,10.101,2.479,12.974,6.262c2.139-1.639,5.028-10.03-6.51-11.159l0.015-1.731c2.079,0.018,3.848,0.344,5.315,0.952     c4.724-17.226,11.812-42.447-17.545-59.667c-6.443-3.779-30.385-12.221-53.64-0.934c-23.755,10.949-27.636,45.398-27.953,63.752     c0.692,0.782,1.659,1.93,2.772,3.391l6.232-10.405c0.184-0.307,0.526-0.476,0.885-0.44c0.355,0.039,0.656,0.28,0.771,0.62     l4.753,14.168l-1.738,0.583l-4.12-12.282l-5.604,9.354c5.308,7.416,12.703,20.869,11.551,37.147c0,0,2.013,3.482,2.3,4     c8.154-11.306,21.708-17.775,37.346-17.775c7.787,0,15.282,1.654,21.654,4.608c1.095-0.94,2.071-1.813,2.956-2.635     L472.521,183.261z"
   id="path59" />
			<path
   style="fill:#F7D629;"
   d="M480.811,184.867c0,0-0.001,0-0.002,0c-0.24,0-0.484-0.003-0.731-0.01     c-1.592-0.042-3.159-0.29-4.658-0.735l-0.959-0.285c-0.94,0.9-1.996,1.859-3.186,2.894c3.106,1.605,5.911,3.532,8.302,5.738     c1.605-1.75,2.991-4.233,3.383-7.698C482.267,184.833,481.553,184.867,480.811,184.867z"
   id="path61" />
		</g>
		<path
   style="fill:#F7D629;"
   d="M522.443,328.07l-5.073,2.625l-0.842-1.628c0,0,1.101-0.56,2.178-1.127    c5.192-2.772-4.907-7.526-8.932-4.301c-0.471,0.432-1.425,1.309-1.425,1.309l-1.24-1.35c0,0,0.643-0.61,1.672-1.536    c3.575-3.049-4.106-7.25-12.956,0.359l4.174,2.435l-0.924,1.583l-7.513-4.382c-24.491-13.066-49.039-39.713-60.298-52.876    c-0.025,3.357-0.367,7.247-1.337,11.388c-2.658,11.362-10.723,26.739-34.039,35.471l-2.486,0.931    c-0.289,0.408-0.575,0.806-0.859,1.2c36.809,25.504,68.826,38.647,97.703,44.808c11.851,2.527,11.525,2.734,15.383,5.379    c10.843,8.285,17.803,0.562,15.511-3.513c-3.395-5.94-7.724-6.195-7.299-10.693c0.425-6.195,19.605-14.598,21.643-21.812    C537.407,325.525,532.556,322.876,522.443,328.07z"
   id="path65" />
		<path
   style="fill:#FFFFFF;"
   d="M429.138,155.931c0-5.965,2.956-13.661,11.104-15.377c10.369-1.81,15.8,6.508,26.199,11.262    c1.847,5.986,0.338,13.493-3.542,15.971c-5.772,3.867-11.728,5.741-15.514,5.5C436.93,172.623,429.138,165.517,429.138,155.931z"
   id="path67" />
		<path
   style="fill:#FFFFFF;"
   d="M480.126,157.289c-6.283,0-11.6,3.79-13.386,9.014c0.023-0.011,0.047-0.021,0.07-0.031    c3.798-1.621,7.337-2.067,11.211,2.098c1.944,2.028,2.802,3.9,2.691,5.882c-0.127,2.298-1.524,4.76-4.771,8.113    c1.321,0.393,2.727,0.621,4.185,0.66c10.418,0.277,14.025-5.761,14.025-12.868C494.151,163.05,487.871,157.289,480.126,157.289z"
   id="path69" />
		<circle
   cx="438.813"
   cy="155.974"
   r="2.47"
   id="circle71" />
		<circle
   cx="484.305"
   cy="175.778"
   r="2.47"
   id="circle73" />
		<path
   d="M461.094,73.095c-2.217-0.144-4.478,0.283-6.65,1.158c-2.318-1.788-5.26-2.942-8.529-3.187    c-8.045-0.602-18.746,4.605-22.424,21.267l1.79,0.396c3.425-15.518,13.19-20.384,20.497-19.834    c2.577,0.193,4.894,0.989,6.796,2.231c-5.266,2.817-9.726,8.246-11.256,14.515l1.782,0.435c1.458-5.976,5.972-11.231,11.1-13.692    c2.11,1.945,3.442,4.567,3.645,7.553l1.829-0.124c-0.213-3.143-1.558-5.973-3.677-8.169c1.652-0.563,3.338-0.825,4.979-0.718    c5.703,0.368,9.34,5.029,10.239,13.125l1.822-0.203C472.043,78.897,467.689,73.521,461.094,73.095z"
   id="path75" />
	</g>
</g>
</svg>
