<svg version="1.1" xmlns="http://www.w3.org/2000/svg" viewBox="0 0 472 341" width="944" height="682">
  <!-- svg-source:excalidraw -->
  
  <defs>
    <style class="style-fonts">
      @font-face {
        font-family: "Virgil";
        src: url("https://excalidraw.com/Virgil.woff2");
      }
      @font-face {
        font-family: "Cascadia";
        src: url("https://excalidraw.com/Cascadia.woff2");
      }
      @font-face {
        font-family: "Assistant";
        src: url("https://excalidraw.com/Assistant-Regular.woff2");
      }
    </style>
    
  </defs>
  <g transform="translate(63 140) rotate(0 6 35)" stroke="none"><path fill="#1e1e1e" d="M -0.58,1.17 Q -0.58,1.17 -2.13,1.38 -3.67,1.59 -3.98,1.39 -4.29,1.19 -4.54,0.91 -4.79,0.64 -4.97,0.32 -5.15,-0.00 -5.24,-0.36 -5.34,-0.71 -5.35,-1.09 -5.35,-1.46 -5.27,-1.82 -5.19,-2.18 -5.02,-2.51 -4.86,-2.84 -4.62,-3.12 -4.38,-3.41 -4.08,-3.62 -3.78,-3.84 -3.43,-3.98 -3.09,-4.11 -2.72,-4.17 -2.36,-4.22 -1.99,-4.18 -1.62,-4.14 -1.27,-4.02 -0.92,-3.89 0.24,-0.42 1.41,3.05 3.25,9.02 5.09,14.99 7.61,23.37 10.12,31.76 12.12,40.91 14.12,50.07 14.79,56.37 15.46,62.67 15.98,65.28 16.51,67.88 16.52,68.09 16.52,68.31 16.46,68.51 16.40,68.71 16.28,68.89 16.16,69.06 15.99,69.19 15.81,69.31 15.61,69.38 15.41,69.44 15.20,69.44 14.98,69.43 14.78,69.36 14.58,69.29 14.42,69.16 14.25,69.03 14.13,68.85 14.02,68.67 13.97,68.46 13.91,68.26 13.93,68.05 13.94,67.84 14.03,67.64 14.11,67.44 14.25,67.28 14.39,67.12 14.57,67.02 14.76,66.91 14.97,66.87 15.17,66.83 15.38,66.86 15.60,66.88 15.79,66.98 15.98,67.07 16.13,67.22 16.28,67.37 16.38,67.56 16.47,67.75 16.50,67.96 16.53,68.17 16.50,68.37 16.46,68.58 16.35,68.77 16.25,68.96 16.09,69.10 15.94,69.24 15.74,69.33 15.55,69.41 15.34,69.43 15.13,69.45 14.92,69.40 14.71,69.35 14.53,69.24 14.35,69.13 14.22,68.96 14.08,68.80 14.01,68.60 13.93,68.40 13.93,68.40 13.93,68.40 13.41,65.79 12.89,63.19 11.09,57.22 9.30,51.25 6.85,42.37 4.40,33.48 1.86,25.12 -0.66,16.75 -2.59,10.38 -4.52,4.01 -4.09,2.80 -3.67,1.59 -3.98,1.39 -4.29,1.19 -4.54,0.91 -4.79,0.64 -4.97,0.32 -5.15,-0.00 -5.24,-0.36 -5.34,-0.71 -5.35,-1.08 -5.35,-1.46 -5.27,-1.82 -5.19,-2.18 -5.02,-2.51 -4.86,-2.84 -4.62,-3.12 -4.38,-3.41 -4.08,-3.62 -3.78,-3.84 -3.43,-3.98 -3.09,-4.11 -2.72,-4.17 -2.36,-4.22 -1.99,-4.18 -1.62,-4.14 -1.27,-4.02 -0.92,-3.89 -0.16,-2.53 0.58,-1.17 0.71,-1.08 0.85,-0.99 0.95,-0.88 1.06,-0.76 1.14,-0.62 1.21,-0.48 1.25,-0.33 1.30,-0.18 1.30,-0.02 1.30,0.13 1.27,0.28 1.23,0.44 1.16,0.58 1.09,0.72 0.99,0.84 0.89,0.96 0.76,1.05 0.63,1.15 0.48,1.20 0.33,1.26 0.18,1.29 0.02,1.31 -0.13,1.29 -0.28,1.28 -0.43,1.22 -0.58,1.17 -0.58,1.17 L -0.58,1.17 Z"></path></g><g transform="translate(25 194) rotate(0 79 -42)" stroke="none"><path fill="#1e1e1e" d="M -1.02,0.82 Q -1.02,0.82 -2.84,-0.08 -4.65,-0.99 -6.98,-4.62 -9.30,-8.26 -10.69,-13.58 -12.09,-18.90 -8.93,-25.56 -5.77,-32.22 1.56,-36.06 8.91,-39.91 19.12,-39.68 29.32,-39.46 40.68,-32.42 52.04,-25.38 57.01,-16.06 61.97,-6.73 60.49,3.46 59.02,13.65 52.98,22.53 46.94,31.40 38.43,37.89 29.93,44.39 20.85,47.83 11.77,51.27 3.05,50.29 -5.65,49.30 -8.32,43.99 -10.98,38.68 -6.63,29.05 -2.29,19.42 14.18,1.82 30.65,-15.77 49.13,-32.67 67.60,-49.56 81.47,-61.90 95.34,-74.23 114.77,-90.98 134.19,-107.72 144.80,-116.75 155.42,-125.78 158.07,-128.89 160.71,-132.00 160.96,-132.16 161.21,-132.33 161.50,-132.43 161.78,-132.54 162.08,-132.57 162.37,-132.60 162.67,-132.56 162.97,-132.52 163.25,-132.41 163.53,-132.30 163.77,-132.13 164.02,-131.96 164.22,-131.73 164.41,-131.50 164.55,-131.24 164.68,-130.97 164.75,-130.68 164.82,-130.38 164.82,-130.08 164.81,-129.78 164.74,-129.49 164.66,-129.20 164.52,-128.94 164.38,-128.67 164.18,-128.45 163.97,-128.23 159.11,-127.26 154.24,-126.30 154.03,-126.27 153.82,-126.25 153.61,-126.29 153.40,-126.33 153.22,-126.43 153.04,-126.54 152.90,-126.70 152.75,-126.86 152.67,-127.05 152.59,-127.25 152.57,-127.46 152.56,-127.67 152.61,-127.88 152.66,-128.08 152.78,-128.26 152.89,-128.44 153.06,-128.57 153.22,-128.70 153.42,-128.78 153.62,-128.85 153.84,-128.85 154.05,-128.86 154.25,-128.79 154.45,-128.73 154.63,-128.61 154.80,-128.48 154.92,-128.31 155.04,-128.14 155.11,-127.93 155.17,-127.73 155.16,-127.52 155.15,-127.30 155.08,-127.10 155.00,-126.91 154.87,-126.74 154.74,-126.58 154.56,-126.46 154.38,-126.35 154.17,-126.30 153.96,-126.25 153.75,-126.27 153.54,-126.29 153.35,-126.37 153.15,-126.46 152.99,-126.60 152.84,-126.74 152.73,-126.93 152.63,-127.11 152.59,-127.32 152.55,-127.53 152.58,-127.74 152.61,-127.95 152.71,-128.14 152.80,-128.33 152.95,-128.48 153.10,-128.63 153.30,-128.72 153.49,-128.82 153.49,-128.82 153.49,-128.82 157.10,-130.41 160.71,-132.00 160.96,-132.16 161.21,-132.33 161.49,-132.43 161.78,-132.54 162.08,-132.57 162.37,-132.60 162.67,-132.56 162.97,-132.52 163.25,-132.41 163.53,-132.30 163.77,-132.13 164.02,-131.96 164.21,-131.73 164.41,-131.50 164.55,-131.24 164.68,-130.97 164.75,-130.68 164.82,-130.38 164.82,-130.08 164.81,-129.78 164.74,-129.49 164.66,-129.20 164.52,-128.94 164.38,-128.67 164.18,-128.45 163.98,-128.23 161.68,-124.73 159.39,-121.23 148.92,-112.01 138.44,-102.79 119.07,-86.07 99.69,-69.34 85.85,-57.04 72.02,-44.74 53.71,-28.02 35.41,-11.30 19.46,5.54 3.51,22.38 -0.78,30.21 -5.08,38.04 -3.74,41.35 -2.39,44.65 3.73,44.99 9.86,45.33 18.12,42.42 26.38,39.50 34.33,33.76 42.27,28.01 47.88,20.26 53.49,12.51 55.07,3.88 56.66,-4.74 52.58,-12.66 48.51,-20.57 38.60,-27.03 28.69,-33.50 19.97,-33.93 11.25,-34.36 5.19,-31.62 -0.87,-28.89 -3.57,-24.12 -6.27,-19.35 -5.21,-15.39 -4.15,-11.43 -2.04,-8.09 0.05,-4.75 0.54,-2.79 1.02,-0.82 1.10,-0.68 1.19,-0.55 1.24,-0.40 1.28,-0.24 1.30,-0.09 1.31,0.06 1.28,0.22 1.25,0.37 1.19,0.52 1.13,0.66 1.03,0.79 0.93,0.91 0.81,1.01 0.69,1.11 0.54,1.18 0.40,1.24 0.24,1.27 0.09,1.31 -0.06,1.30 -0.22,1.29 -0.37,1.24 -0.52,1.20 -0.66,1.12 -0.79,1.04 -0.91,0.93 -1.02,0.82 -1.02,0.82 L -1.02,0.82 Z"></path></g><g transform="translate(104 109) rotate(0 17 60.5)" stroke="none"><path fill="#1e1e1e" d="M -0.92,0.92 Q -0.92,0.92 -2.15,1.00 -3.38,1.08 -3.61,0.78 -3.85,0.48 -4.00,0.13 -4.16,-0.21 -4.23,-0.58 -4.30,-0.95 -4.27,-1.33 -4.25,-1.71 -4.14,-2.08 -4.02,-2.44 -3.83,-2.77 -3.63,-3.09 -3.36,-3.36 -3.09,-3.63 -2.77,-3.83 -2.44,-4.02 -2.08,-4.14 -1.71,-4.25 -1.33,-4.27 -0.95,-4.30 -0.58,-4.23 -0.21,-4.16 0.13,-4.00 0.48,-3.85 0.78,-3.61 1.08,-3.38 3.27,3.67 5.46,10.73 8.79,21.44 12.12,32.14 16.13,45.94 20.14,59.74 23.90,73.43 27.66,87.11 30.14,97.69 32.61,108.26 33.95,112.68 35.28,117.09 35.31,117.30 35.34,117.51 35.29,117.72 35.25,117.93 35.15,118.11 35.04,118.30 34.88,118.44 34.73,118.58 34.53,118.66 34.33,118.75 34.12,118.76 33.91,118.78 33.70,118.73 33.50,118.67 33.32,118.56 33.14,118.44 33.01,118.28 32.88,118.11 32.80,117.91 32.73,117.71 32.73,117.50 32.72,117.29 32.79,117.08 32.85,116.88 32.97,116.71 33.10,116.54 33.27,116.41 33.44,116.29 33.65,116.23 33.85,116.17 34.06,116.17 34.28,116.18 34.48,116.26 34.67,116.33 34.84,116.46 35.00,116.60 35.12,116.78 35.23,116.96 35.28,117.16 35.33,117.37 35.31,117.58 35.30,117.79 35.21,117.99 35.13,118.18 34.98,118.34 34.84,118.50 34.66,118.60 34.47,118.70 34.26,118.74 34.05,118.78 33.84,118.75 33.63,118.72 33.44,118.63 33.25,118.53 33.10,118.38 32.95,118.23 32.86,118.04 32.77,117.85 32.77,117.85 32.77,117.85 31.43,113.44 30.10,109.02 26.30,98.82 22.50,88.63 18.25,75.08 14.00,61.53 10.00,47.79 6.00,34.04 2.65,23.24 -0.69,12.44 -2.03,6.76 -3.38,1.08 -3.61,0.78 -3.85,0.48 -4.00,0.13 -4.16,-0.21 -4.23,-0.58 -4.30,-0.95 -4.27,-1.33 -4.25,-1.71 -4.14,-2.08 -4.02,-2.44 -3.83,-2.77 -3.63,-3.09 -3.36,-3.36 -3.09,-3.63 -2.77,-3.83 -2.44,-4.02 -2.08,-4.14 -1.71,-4.25 -1.33,-4.27 -0.95,-4.30 -0.58,-4.23 -0.21,-4.16 0.13,-4.00 0.48,-3.85 0.78,-3.61 1.08,-3.38 1.00,-2.15 0.92,-0.92 1.02,-0.80 1.12,-0.67 1.18,-0.53 1.25,-0.39 1.28,-0.23 1.31,-0.07 1.30,0.07 1.29,0.23 1.24,0.38 1.19,0.53 1.11,0.67 1.03,0.80 0.92,0.92 0.80,1.03 0.67,1.11 0.53,1.19 0.38,1.24 0.23,1.29 0.07,1.30 -0.07,1.31 -0.23,1.28 -0.39,1.25 -0.53,1.18 -0.67,1.12 -0.80,1.02 -0.92,0.92 -0.92,0.92 L -0.92,0.92 Z"></path></g><g transform="translate(119 109) rotate(0 30.5 39.5)" stroke="none"><path fill="#1e1e1e" d="M 1.31,0.07 Q 1.31,0.07 1.85,5.27 2.39,10.47 4.23,17.71 6.07,24.95 7.81,28.97 9.54,32.98 13.29,34.83 17.04,36.68 20.68,35.38 24.32,34.08 27.93,30.21 31.53,26.35 33.56,19.04 35.59,11.74 36.18,6.36 36.78,0.99 36.53,-0.28 36.28,-1.55 36.37,-1.92 36.46,-2.28 36.64,-2.62 36.82,-2.95 37.07,-3.23 37.33,-3.52 37.64,-3.73 37.95,-3.94 38.31,-4.07 38.66,-4.21 39.04,-4.25 39.41,-4.29 39.79,-4.24 40.16,-4.20 40.52,-4.06 40.87,-3.92 41.18,-3.71 41.49,-3.49 41.74,-3.21 41.99,-2.92 42.16,-2.58 42.34,-2.25 42.42,-1.88 42.51,-1.51 42.51,-1.13 42.51,-0.76 42.98,3.82 43.45,8.41 45.92,21.28 48.39,34.15 51.38,45.34 54.36,56.52 56.55,64.94 58.75,73.35 60.04,76.86 61.32,80.36 61.36,80.57 61.40,80.78 61.37,80.99 61.35,81.20 61.25,81.39 61.16,81.58 61.01,81.73 60.86,81.88 60.67,81.98 60.48,82.07 60.27,82.10 60.06,82.13 59.85,82.09 59.64,82.05 59.45,81.94 59.27,81.84 59.13,81.68 58.98,81.52 58.90,81.33 58.82,81.13 58.80,80.92 58.78,80.71 58.83,80.50 58.88,80.30 59.00,80.12 59.11,79.94 59.28,79.80 59.44,79.67 59.64,79.60 59.84,79.52 60.06,79.52 60.27,79.51 60.47,79.58 60.67,79.64 60.85,79.76 61.02,79.89 61.14,80.06 61.27,80.23 61.33,80.43 61.39,80.64 61.39,80.85 61.38,81.06 61.31,81.26 61.23,81.46 61.10,81.63 60.97,81.79 60.79,81.91 60.61,82.02 60.40,82.07 60.20,82.12 59.99,82.11 59.77,82.09 59.58,82.01 59.38,81.92 59.23,81.78 59.07,81.64 58.96,81.45 58.86,81.27 58.86,81.27 58.86,81.27 57.57,77.76 56.28,74.26 52.41,66.18 48.55,58.11 45.38,46.72 42.22,35.34 39.70,22.17 37.18,9.00 36.73,3.72 36.28,-1.55 36.37,-1.92 36.46,-2.28 36.64,-2.62 36.82,-2.95 37.07,-3.23 37.33,-3.52 37.64,-3.73 37.95,-3.94 38.31,-4.07 38.66,-4.21 39.04,-4.25 39.41,-4.29 39.79,-4.24 40.16,-4.20 40.52,-4.06 40.87,-3.92 41.18,-3.71 41.49,-3.49 41.74,-3.21 41.99,-2.92 42.16,-2.58 42.34,-2.25 42.42,-1.88 42.51,-1.51 42.51,-1.13 42.51,-0.76 42.79,0.45 43.08,1.67 42.24,7.57 41.39,13.47 38.68,21.87 35.97,30.27 31.12,34.96 26.28,39.64 20.86,40.85 15.45,42.07 10.06,39.02 4.68,35.98 2.50,31.18 0.33,26.39 -1.60,18.30 -3.54,10.22 -2.42,5.07 -1.31,-0.07 -1.28,-0.22 -1.25,-0.38 -1.19,-0.52 -1.12,-0.67 -1.03,-0.79 -0.93,-0.92 -0.80,-1.02 -0.68,-1.12 -0.54,-1.18 -0.39,-1.25 -0.24,-1.28 -0.08,-1.31 0.07,-1.30 0.23,-1.29 0.38,-1.24 0.53,-1.20 0.66,-1.11 0.80,-1.03 0.91,-0.92 1.02,-0.81 1.11,-0.67 1.19,-0.54 1.24,-0.39 1.29,-0.24 1.30,-0.08 1.31,0.07 1.31,0.07 L 1.31,0.07 Z"></path></g><g transform="translate(136 123) rotate(0 -30.5 -30)" stroke="none"><path fill="#1e1e1e" d="M 0.48,1.21 Q 0.48,1.21 -2.07,3.15 -4.64,5.08 -10.98,6.56 -17.32,8.04 -24.08,7.85 -30.85,7.67 -37.87,4.83 -44.89,2.00 -50.51,-3.93 -56.13,-9.87 -58.61,-20.69 -61.10,-31.51 -59.36,-40.54 -57.62,-49.58 -52.30,-55.59 -46.98,-61.60 -39.35,-62.83 -31.72,-64.06 -25.41,-59.43 -19.11,-54.79 -16.57,-53.16 -14.04,-51.52 -13.88,-51.38 -13.72,-51.23 -13.62,-51.05 -13.51,-50.86 -13.47,-50.65 -13.43,-50.45 -13.46,-50.23 -13.49,-50.02 -13.59,-49.83 -13.68,-49.64 -13.84,-49.49 -13.99,-49.35 -14.18,-49.25 -14.37,-49.16 -14.58,-49.13 -14.79,-49.10 -15.00,-49.14 -15.21,-49.18 -15.39,-49.29 -15.57,-49.39 -15.72,-49.55 -15.86,-49.71 -15.94,-49.91 -16.02,-50.10 -16.04,-50.31 -16.06,-50.53 -16.00,-50.73 -15.95,-50.94 -15.84,-51.12 -15.72,-51.30 -15.56,-51.43 -15.39,-51.56 -15.19,-51.63 -14.99,-51.71 -14.78,-51.71 -14.57,-51.72 -14.36,-51.65 -14.16,-51.59 -13.99,-51.46 -13.82,-51.34 -13.69,-51.17 -13.57,-50.99 -13.51,-50.79 -13.45,-50.59 -13.45,-50.37 -13.46,-50.16 -13.53,-49.96 -13.61,-49.76 -13.74,-49.60 -13.87,-49.43 -14.05,-49.32 -14.23,-49.21 -14.44,-49.16 -14.65,-49.11 -14.86,-49.12 -15.07,-49.14 -15.27,-49.23 -15.46,-49.31 -15.46,-49.31 -15.46,-49.31 -18.00,-50.95 -20.54,-52.59 -26.18,-55.65 -31.83,-58.72 -37.42,-57.78 -43.02,-56.84 -47.18,-52.34 -51.34,-47.84 -52.95,-40.25 -54.57,-32.67 -52.78,-23.31 -50.99,-13.96 -46.54,-8.97 -42.09,-3.98 -36.25,-1.40 -30.41,1.18 -24.51,1.56 -18.61,1.95 -12.73,0.73 -6.85,-0.48 -3.67,-0.85 -0.48,-1.21 -0.33,-1.26 -0.18,-1.30 -0.02,-1.30 0.13,-1.30 0.28,-1.27 0.44,-1.23 0.58,-1.16 0.72,-1.09 0.84,-0.99 0.96,-0.88 1.05,-0.75 1.15,-0.63 1.21,-0.48 1.26,-0.33 1.29,-0.18 1.31,-0.02 1.29,0.13 1.28,0.29 1.22,0.44 1.17,0.58 1.08,0.72 0.99,0.85 0.88,0.96 0.76,1.06 0.62,1.14 0.48,1.21 0.48,1.21 L 0.48,1.21 Z"></path></g><g transform="translate(86 99) rotate(0 7 -43)" stroke="none"><path fill="#1e1e1e" d="M -0.65,1.14 Q -0.65,1.14 -3.07,0.70 -5.48,0.26 -10.99,-2.71 -16.49,-5.68 -23.34,-10.55 -30.18,-15.41 -36.04,-25.42 -41.90,-35.42 -43.22,-45.29 -44.54,-55.16 -41.42,-63.60 -38.29,-72.04 -31.31,-77.93 -24.33,-83.81 -14.18,-85.46 -4.03,-87.11 10.15,-81.19 24.34,-75.27 34.14,-66.44 43.94,-57.62 49.59,-47.87 55.24,-38.12 56.82,-28.48 58.41,-18.83 58.64,-12.52 58.88,-6.20 59.00,-3.57 59.13,-0.94 59.10,-0.73 59.08,-0.52 58.99,-0.33 58.90,-0.14 58.75,0.01 58.60,0.16 58.41,0.26 58.22,0.35 58.01,0.39 57.80,0.42 57.59,0.38 57.38,0.35 57.20,0.25 57.01,0.15 56.87,-0.00 56.72,-0.15 56.63,-0.35 56.55,-0.54 56.52,-0.75 56.50,-0.96 56.55,-1.17 56.60,-1.38 56.71,-1.56 56.82,-1.74 56.98,-1.88 57.15,-2.01 57.34,-2.09 57.54,-2.17 57.75,-2.18 57.97,-2.19 58.17,-2.13 58.37,-2.07 58.55,-1.95 58.72,-1.83 58.85,-1.66 58.98,-1.49 59.05,-1.29 59.11,-1.09 59.11,-0.87 59.11,-0.66 59.04,-0.46 58.97,-0.26 58.84,-0.09 58.71,0.07 58.53,0.19 58.36,0.30 58.15,0.36 57.95,0.41 57.73,0.40 57.52,0.39 57.32,0.31 57.13,0.23 56.97,0.09 56.81,-0.04 56.70,-0.22 56.59,-0.41 56.55,-0.61 56.50,-0.82 56.50,-0.82 56.50,-0.82 56.38,-3.45 56.26,-6.08 55.92,-12.15 55.57,-18.21 53.10,-26.86 50.62,-35.52 45.35,-44.48 40.08,-53.44 30.97,-61.57 21.85,-69.70 9.12,-75.26 -3.60,-80.82 -12.14,-79.72 -20.68,-78.61 -26.57,-73.97 -32.45,-69.33 -35.26,-62.46 -38.06,-55.59 -37.09,-47.04 -36.11,-38.49 -31.16,-29.50 -26.21,-20.51 -19.79,-15.86 -13.37,-11.22 -7.96,-8.04 -2.56,-4.86 -0.95,-3.00 0.65,-1.14 0.77,-1.04 0.90,-0.95 1.00,-0.82 1.10,-0.70 1.17,-0.56 1.24,-0.42 1.27,-0.26 1.30,-0.11 1.30,0.04 1.29,0.20 1.25,0.35 1.21,0.50 1.13,0.64 1.05,0.78 0.94,0.89 0.83,1.01 0.70,1.09 0.56,1.18 0.41,1.23 0.26,1.28 0.11,1.29 -0.04,1.31 -0.20,1.28 -0.35,1.26 -0.50,1.20 -0.65,1.14 -0.65,1.14 L -0.65,1.14 Z"></path></g><g transform="translate(186 153) rotate(0 46.5 47.5)" stroke="none"><path fill="#1e1e1e" d="M -0.98,-0.87 Q -0.98,-0.87 0.83,-3.88 2.64,-6.90 5.45,-11.33 8.26,-15.76 10.72,-24.27 13.19,-32.79 13.94,-41.15 14.70,-49.51 13.88,-57.18 13.07,-64.85 11.02,-69.99 8.96,-75.13 8.97,-75.50 8.98,-75.87 9.08,-76.23 9.17,-76.59 9.36,-76.92 9.54,-77.24 9.79,-77.51 10.04,-77.79 10.35,-77.99 10.67,-78.20 11.02,-78.32 11.37,-78.44 11.74,-78.48 12.11,-78.52 12.48,-78.46 12.85,-78.41 13.19,-78.27 13.54,-78.13 13.84,-77.91 14.14,-77.69 14.38,-77.41 14.62,-77.12 14.78,-76.79 14.95,-76.46 15.03,-76.09 15.11,-75.73 9.74,-70.09 4.38,-64.44 2.08,-57.65 -0.21,-50.85 -0.76,-44.90 -1.31,-38.94 0.75,-36.26 2.81,-33.57 5.96,-33.55 9.10,-33.53 12.94,-35.79 16.77,-38.04 20.03,-41.91 23.29,-45.79 25.50,-49.91 27.72,-54.03 28.71,-56.48 29.70,-58.94 29.93,-59.24 30.15,-59.55 30.44,-59.80 30.74,-60.05 31.08,-60.22 31.42,-60.39 31.79,-60.47 32.16,-60.55 32.55,-60.54 32.93,-60.53 33.30,-60.43 33.66,-60.33 34.00,-60.15 34.33,-59.96 34.61,-59.70 34.89,-59.45 35.10,-59.13 35.31,-58.81 35.44,-58.45 35.56,-58.09 35.60,-57.71 35.64,-57.33 35.58,-56.95 35.53,-56.57 35.39,-56.22 35.24,-55.87 36.72,-49.51 38.20,-43.16 40.26,-29.48 42.32,-15.80 46.34,3.73 50.37,23.28 58.09,51.06 65.82,78.85 72.81,99.53 79.81,120.21 85.31,134.14 90.80,148.08 93.91,156.46 97.03,164.85 98.01,168.57 98.99,172.30 99.04,172.50 99.09,172.71 99.08,172.92 99.06,173.13 98.97,173.33 98.89,173.52 98.75,173.68 98.60,173.84 98.42,173.94 98.23,174.05 98.02,174.08 97.82,174.12 97.60,174.10 97.39,174.07 97.20,173.97 97.01,173.88 96.86,173.73 96.71,173.57 96.62,173.38 96.53,173.19 96.50,172.98 96.47,172.77 96.51,172.56 96.55,172.35 96.66,172.17 96.76,171.99 96.92,171.84 97.08,171.70 97.28,171.62 97.47,171.54 97.68,171.52 97.89,171.50 98.10,171.55 98.31,171.61 98.49,171.72 98.66,171.84 98.80,172.00 98.93,172.17 99.00,172.37 99.07,172.57 99.08,172.78 99.08,172.99 99.02,173.20 98.96,173.40 98.83,173.57 98.71,173.74 98.54,173.87 98.36,173.99 98.16,174.05 97.96,174.11 97.74,174.11 97.53,174.10 97.33,174.03 97.13,173.95 96.97,173.82 96.80,173.69 96.69,173.51 96.58,173.33 96.58,173.33 96.58,173.33 94.57,170.04 92.56,166.75 88.63,158.63 84.70,150.51 79.05,136.45 73.39,122.38 66.32,101.52 59.26,80.67 51.48,52.66 43.70,24.65 39.66,4.92 35.62,-14.80 33.58,-28.60 31.54,-42.40 31.07,-48.42 30.60,-54.44 30.15,-56.69 29.70,-58.94 29.93,-59.24 30.15,-59.55 30.44,-59.80 30.74,-60.05 31.08,-60.22 31.42,-60.39 31.79,-60.47 32.16,-60.55 32.55,-60.54 32.93,-60.53 33.30,-60.43 33.66,-60.33 34.00,-60.15 34.33,-59.96 34.61,-59.70 34.89,-59.45 35.10,-59.13 35.31,-58.81 35.44,-58.45 35.56,-58.09 35.60,-57.71 35.64,-57.33 35.58,-56.95 35.53,-56.57 35.39,-56.22 35.24,-55.87 34.18,-53.46 33.11,-51.05 30.48,-46.43 27.86,-41.82 23.78,-37.31 19.70,-32.80 14.38,-30.23 9.07,-27.65 4.22,-28.44 -0.62,-29.23 -3.83,-33.85 -7.04,-38.48 -6.48,-45.67 -5.92,-52.86 -2.90,-60.76 0.10,-68.67 4.53,-71.90 8.96,-75.13 8.97,-75.50 8.98,-75.87 9.08,-76.23 9.17,-76.59 9.36,-76.92 9.54,-77.24 9.79,-77.51 10.04,-77.79 10.35,-77.99 10.66,-78.20 11.02,-78.32 11.37,-78.44 11.74,-78.48 12.11,-78.52 12.48,-78.46 12.85,-78.41 13.19,-78.27 13.54,-78.13 13.84,-77.91 14.14,-77.69 14.38,-77.41 14.62,-77.12 14.78,-76.79 14.95,-76.46 15.03,-76.09 15.11,-75.73 17.17,-70.63 19.23,-65.53 19.99,-57.23 20.74,-48.93 19.77,-40.01 18.80,-31.09 15.85,-21.94 12.89,-12.78 9.72,-8.11 6.55,-3.44 3.76,-1.28 0.98,0.87 0.86,0.97 0.74,1.08 0.60,1.15 0.46,1.22 0.30,1.26 0.15,1.30 -0.00,1.30 -0.16,1.30 -0.31,1.26 -0.46,1.22 -0.60,1.15 -0.74,1.07 -0.86,0.97 -0.98,0.86 -1.07,0.73 -1.16,0.60 -1.21,0.46 -1.27,0.31 -1.29,0.15 -1.31,-0.00 -1.29,-0.15 -1.27,-0.31 -1.21,-0.46 -1.16,-0.61 -1.07,-0.74 -0.98,-0.87 -0.98,-0.87 L -0.98,-0.87 Z"></path></g><g transform="translate(243 92) rotate(0 2.5 18.5)" stroke="none"><path fill="#1e1e1e" d="M 1.31,0 Q 1.31,0 2.14,2.00 2.98,4.01 4.09,10.37 5.21,16.72 5.74,22.80 6.28,28.88 6.85,31.42 7.43,33.95 7.44,34.17 7.45,34.38 7.40,34.58 7.34,34.79 7.22,34.97 7.10,35.14 6.94,35.27 6.77,35.40 6.57,35.47 6.37,35.54 6.15,35.54 5.94,35.54 5.74,35.48 5.54,35.41 5.37,35.28 5.20,35.15 5.08,34.98 4.96,34.80 4.90,34.60 4.84,34.39 4.85,34.18 4.86,33.97 4.94,33.77 5.02,33.57 5.15,33.41 5.29,33.25 5.47,33.14 5.65,33.03 5.86,32.98 6.07,32.93 6.28,32.96 6.49,32.98 6.68,33.07 6.88,33.15 7.03,33.30 7.19,33.44 7.29,33.63 7.39,33.82 7.42,34.03 7.46,34.24 7.43,34.45 7.39,34.66 7.29,34.84 7.20,35.03 7.04,35.18 6.89,35.33 6.70,35.42 6.50,35.51 6.29,35.53 6.08,35.56 5.87,35.51 5.67,35.47 5.48,35.36 5.30,35.25 5.16,35.09 5.02,34.93 4.94,34.73 4.87,34.53 4.87,34.53 4.87,34.53 4.29,32.00 3.72,29.46 1.55,23.60 -0.61,17.74 -1.79,10.88 -2.98,4.03 -2.14,2.01 -1.31,0 -1.29,-0.15 -1.27,-0.31 -1.21,-0.46 -1.16,-0.61 -1.07,-0.74 -0.98,-0.87 -0.86,-0.97 -0.74,-1.08 -0.60,-1.15 -0.46,-1.22 -0.31,-1.26 -0.15,-1.30 0.00,-1.30 0.15,-1.30 0.31,-1.26 0.46,-1.22 0.60,-1.15 0.74,-1.08 0.86,-0.97 0.98,-0.87 1.07,-0.74 1.16,-0.61 1.21,-0.46 1.27,-0.31 1.29,-0.15 1.31,0.00 1.31,0.00 L 1.31,0 Z"></path></g><g transform="translate(231 69) rotate(0 5 -1.5)" stroke="none"><path fill="#1e1e1e" d="M 0.76,1.06 Q 0.76,1.06 -0.35,2.11 -1.46,3.15 -1.06,4.22 -0.65,5.28 1.84,5.79 4.35,6.31 8.17,5.83 12.00,5.35 14.99,3.64 17.97,1.93 19.17,0.17 20.36,-1.59 20.28,-2.83 20.20,-4.07 15.28,-5.76 10.36,-7.45 4.72,-6.40 -0.91,-5.35 -5.00,-3.24 -9.10,-1.13 -10.87,0.07 -12.64,1.28 -12.83,1.37 -13.02,1.46 -13.23,1.49 -13.44,1.51 -13.65,1.47 -13.86,1.42 -14.04,1.32 -14.22,1.21 -14.36,1.05 -14.50,0.88 -14.58,0.69 -14.66,0.49 -14.67,0.28 -14.69,0.07 -14.63,-0.13 -14.57,-0.33 -14.46,-0.51 -14.34,-0.69 -14.17,-0.82 -14.00,-0.95 -13.80,-1.01 -13.60,-1.08 -13.39,-1.08 -13.17,-1.09 -12.97,-1.02 -12.77,-0.95 -12.60,-0.82 -12.43,-0.70 -12.31,-0.52 -12.19,-0.35 -12.13,-0.14 -12.07,0.05 -12.08,0.26 -12.10,0.48 -12.17,0.67 -12.25,0.87 -12.39,1.04 -12.52,1.20 -12.71,1.31 -12.89,1.42 -13.09,1.47 -13.30,1.51 -13.51,1.49 -13.72,1.47 -13.92,1.38 -14.11,1.29 -14.27,1.15 -14.42,1.00 -14.52,0.81 -14.62,0.63 -14.66,0.42 -14.69,0.21 -14.66,0.00 -14.63,-0.20 -14.53,-0.39 -14.43,-0.58 -14.28,-0.73 -14.12,-0.87 -14.12,-0.87 -14.12,-0.87 -12.35,-2.09 -10.58,-3.30 -6.35,-6.90 -2.12,-10.50 5.06,-12.06 12.24,-13.63 18.57,-10.64 24.89,-7.65 25.55,-3.29 26.22,1.06 23.75,4.34 21.28,7.62 17.00,9.68 12.72,11.73 7.56,12.00 2.41,12.26 -1.32,10.46 -5.06,8.66 -5.82,5.62 -6.58,2.59 -3.67,0.76 -0.76,-1.06 -0.62,-1.14 -0.48,-1.22 -0.33,-1.26 -0.17,-1.30 -0.02,-1.30 0.13,-1.30 0.29,-1.27 0.44,-1.23 0.58,-1.16 0.72,-1.09 0.84,-0.98 0.96,-0.88 1.06,-0.75 1.15,-0.62 1.21,-0.48 1.26,-0.33 1.29,-0.17 1.31,-0.02 1.29,0.13 1.28,0.29 1.22,0.44 1.17,0.59 1.08,0.72 0.99,0.85 0.88,0.96 0.76,1.06 0.76,1.06 L 0.76,1.06 Z"></path></g><g transform="translate(271 94) rotate(0 16.5 -16.5)" stroke="none"><path fill="#1e1e1e" d="M -0.69,1.11 Q -0.69,1.11 -3.47,0.42 -6.25,-0.25 -8.05,-1.93 -9.85,-3.62 -11.04,-5.85 -12.22,-8.09 -12.46,-10.27 -12.71,-12.46 -12.15,-14.77 -11.58,-17.09 -10.97,-18.42 -10.35,-19.76 -9.87,-20.17 -9.39,-20.59 -9.20,-20.89 -9.01,-21.19 -8.76,-21.44 -8.50,-21.68 -8.19,-21.86 -7.88,-22.03 -7.54,-22.13 -7.20,-22.23 -6.85,-22.24 -6.50,-22.25 -6.15,-22.18 -5.80,-22.11 -5.48,-21.96 -5.16,-21.80 -4.89,-21.58 -4.61,-21.35 -4.40,-21.07 -4.19,-20.79 -4.05,-20.46 -3.91,-20.13 -3.86,-19.78 -3.80,-19.43 -3.83,-19.08 -3.86,-18.73 -3.98,-18.39 -4.09,-18.05 -2.32,-17.23 -0.56,-16.40 2.04,-12.73 4.64,-9.06 8.28,-6.12 11.92,-3.18 14.71,-2.66 17.49,-2.13 19.82,-7.11 22.15,-12.08 23.22,-17.32 24.30,-22.56 25.07,-26.31 25.84,-30.06 26.31,-32.40 26.78,-34.74 27.09,-34.83 27.41,-34.93 27.51,-35.27 27.60,-35.62 27.78,-35.94 27.96,-36.25 28.20,-36.51 28.45,-36.77 28.75,-36.97 29.05,-37.17 29.39,-37.28 29.73,-37.40 30.09,-37.43 30.45,-37.47 30.81,-37.41 31.16,-37.36 31.50,-37.22 31.83,-37.08 32.12,-36.87 32.41,-36.66 32.64,-36.38 32.87,-36.11 33.03,-35.78 33.19,-35.46 33.26,-35.11 33.34,-34.75 33.33,-34.39 33.32,-34.03 35.53,-30.73 37.73,-27.43 39.29,-23.88 40.85,-20.34 42.15,-16.03 43.44,-11.72 44.15,-7.41 44.85,-3.11 44.86,-2.89 44.88,-2.68 44.82,-2.48 44.77,-2.27 44.65,-2.09 44.54,-1.92 44.37,-1.79 44.20,-1.65 44.00,-1.58 43.80,-1.51 43.59,-1.51 43.38,-1.51 43.17,-1.57 42.97,-1.64 42.80,-1.76 42.63,-1.89 42.51,-2.07 42.39,-2.24 42.33,-2.44 42.27,-2.65 42.28,-2.86 42.29,-3.07 42.36,-3.27 42.44,-3.47 42.57,-3.63 42.71,-3.80 42.89,-3.91 43.07,-4.02 43.28,-4.07 43.48,-4.12 43.69,-4.10 43.91,-4.08 44.10,-3.99 44.29,-3.90 44.45,-3.76 44.61,-3.62 44.71,-3.43 44.81,-3.24 44.85,-3.03 44.88,-2.82 44.85,-2.61 44.82,-2.40 44.72,-2.21 44.63,-2.03 44.47,-1.88 44.32,-1.73 44.13,-1.64 43.94,-1.55 43.73,-1.52 43.52,-1.49 43.31,-1.54 43.10,-1.58 42.92,-1.69 42.73,-1.79 42.59,-1.96 42.45,-2.12 42.37,-2.31 42.29,-2.51 42.29,-2.51 42.29,-2.51 41.07,-6.42 39.85,-10.33 37.98,-14.18 36.10,-18.03 34.25,-21.51 32.39,-24.98 31.26,-27.51 30.12,-30.04 28.76,-32.48 27.41,-34.93 27.51,-35.27 27.60,-35.62 27.78,-35.94 27.96,-36.25 28.20,-36.51 28.45,-36.77 28.75,-36.97 29.05,-37.17 29.39,-37.28 29.73,-37.40 30.09,-37.43 30.45,-37.47 30.81,-37.41 31.16,-37.36 31.50,-37.22 31.83,-37.08 32.12,-36.87 32.41,-36.66 32.64,-36.38 32.87,-36.11 33.03,-35.78 33.19,-35.46 33.26,-35.11 33.34,-34.75 33.33,-34.39 33.32,-34.03 32.78,-33.43 32.24,-32.83 32.05,-30.83 31.87,-28.82 31.09,-25.06 30.32,-21.30 29.11,-15.63 27.90,-9.95 25.28,-4.02 22.66,1.90 19.54,2.82 16.43,3.74 12.40,2.65 8.36,1.55 4.09,-2.01 -0.17,-5.59 -2.67,-9.13 -5.17,-12.67 -7.28,-16.63 -9.39,-20.59 -9.20,-20.89 -9.01,-21.19 -8.76,-21.43 -8.50,-21.68 -8.19,-21.86 -7.89,-22.03 -7.54,-22.13 -7.20,-22.23 -6.85,-22.24 -6.50,-22.25 -6.15,-22.18 -5.80,-22.11 -5.48,-21.96 -5.16,-21.80 -4.89,-21.58 -4.61,-21.35 -4.40,-21.07 -4.19,-20.79 -4.05,-20.46 -3.91,-20.13 -3.86,-19.78 -3.80,-19.43 -3.83,-19.08 -3.86,-18.73 -3.98,-18.39 -4.09,-18.05 -5.03,-16.76 -5.96,-15.47 -6.47,-13.06 -6.97,-10.65 -6.26,-9.33 -5.55,-8.01 -4.24,-6.75 -2.94,-5.49 -1.12,-3.30 0.69,-1.11 0.81,-1.01 0.94,-0.91 1.03,-0.78 1.13,-0.66 1.19,-0.51 1.25,-0.37 1.28,-0.21 1.31,-0.05 1.30,0.09 1.28,0.25 1.23,0.40 1.18,0.55 1.10,0.69 1.02,0.82 0.90,0.93 0.79,1.04 0.65,1.12 0.52,1.20 0.36,1.25 0.21,1.29 0.05,1.30 -0.09,1.30 -0.25,1.27 -0.40,1.24 -0.55,1.18 -0.69,1.11 -0.69,1.11 L -0.69,1.11 Z"></path></g><g transform="translate(188 181) rotate(0 112.5 -53)" stroke="none"><path fill="#1e1e1e" d="M 0.67,1.12 Q 0.67,1.12 -1.84,3.43 -4.37,5.74 -11.86,10.53 -19.34,15.33 -27.14,20.04 -34.93,24.76 -38.52,27.32 -42.10,29.89 -42.44,30.04 -42.78,30.19 -43.15,30.25 -43.51,30.32 -43.88,30.29 -44.25,30.26 -44.60,30.15 -44.95,30.04 -45.27,29.84 -45.58,29.65 -45.84,29.38 -46.10,29.12 -46.29,28.80 -46.48,28.48 -46.59,28.13 -46.69,27.77 -46.71,27.40 -46.73,27.03 -46.66,26.67 -46.59,26.30 -46.43,25.97 -46.28,25.63 -46.05,25.34 -45.81,25.05 -45.52,24.83 -45.23,24.60 -41.51,22.69 -37.80,20.78 -25.45,13.42 -13.11,6.07 8.59,-6.03 30.30,-18.13 58.51,-33.07 86.72,-48.01 124.88,-67.04 163.05,-86.07 190.20,-99.05 217.36,-112.04 231.46,-118.97 245.56,-125.91 253.23,-129.96 260.90,-134.01 262.80,-135.69 264.70,-137.38 265.07,-137.52 265.45,-137.67 265.85,-137.72 266.25,-137.77 266.65,-137.72 267.05,-137.67 267.43,-137.53 267.81,-137.39 268.14,-137.16 268.48,-136.94 268.74,-136.63 269.01,-136.33 269.20,-135.98 269.39,-135.62 269.49,-135.23 269.59,-134.84 269.59,-134.43 269.59,-134.03 269.50,-133.64 269.40,-133.25 269.22,-132.89 269.03,-132.53 268.76,-132.23 268.50,-131.92 268.17,-131.69 267.84,-131.46 259.05,-130.74 250.26,-130.01 246.80,-129.35 243.35,-128.68 243.14,-128.68 242.92,-128.67 242.72,-128.74 242.52,-128.80 242.35,-128.92 242.17,-129.05 242.05,-129.22 241.92,-129.39 241.86,-129.59 241.80,-129.80 241.81,-130.01 241.81,-130.22 241.88,-130.42 241.96,-130.62 242.09,-130.79 242.22,-130.95 242.40,-131.07 242.58,-131.18 242.79,-131.23 243.00,-131.28 243.21,-131.27 243.42,-131.25 243.61,-131.17 243.81,-131.08 243.97,-130.94 244.13,-130.80 244.23,-130.61 244.33,-130.43 244.37,-130.22 244.41,-130.01 244.39,-129.80 244.36,-129.59 244.26,-129.40 244.17,-129.21 244.02,-129.06 243.87,-128.91 243.68,-128.81 243.49,-128.72 243.28,-128.69 243.07,-128.66 242.86,-128.70 242.65,-128.74 242.46,-128.85 242.28,-128.95 242.14,-129.11 241.99,-129.27 241.91,-129.46 241.83,-129.66 241.81,-129.87 241.79,-130.08 241.84,-130.29 241.90,-130.49 242.01,-130.67 242.12,-130.85 242.29,-130.99 242.46,-131.12 242.65,-131.19 242.85,-131.26 242.85,-131.26 242.85,-131.26 246.31,-131.93 249.76,-132.59 257.23,-134.98 264.70,-137.38 265.07,-137.52 265.45,-137.67 265.85,-137.72 266.25,-137.77 266.65,-137.72 267.05,-137.67 267.43,-137.53 267.81,-137.39 268.14,-137.16 268.48,-136.94 268.74,-136.64 269.01,-136.33 269.20,-135.98 269.39,-135.62 269.49,-135.23 269.59,-134.84 269.59,-134.43 269.59,-134.03 269.50,-133.64 269.40,-133.25 269.22,-132.89 269.03,-132.53 268.76,-132.23 268.50,-131.92 268.17,-131.69 267.84,-131.46 266.04,-129.66 264.24,-127.86 256.46,-123.71 248.68,-119.55 234.54,-112.60 220.41,-105.65 193.29,-92.73 166.16,-79.81 128.04,-60.88 89.92,-41.94 61.75,-27.09 33.57,-12.24 11.90,-0.25 -9.76,11.73 -22.36,19.13 -34.96,26.53 -38.53,28.21 -42.10,29.89 -42.44,30.04 -42.78,30.19 -43.15,30.25 -43.51,30.32 -43.88,30.29 -44.25,30.26 -44.60,30.15 -44.95,30.04 -45.27,29.84 -45.58,29.65 -45.84,29.38 -46.10,29.12 -46.29,28.80 -46.48,28.48 -46.59,28.13 -46.69,27.77 -46.71,27.40 -46.73,27.03 -46.66,26.67 -46.59,26.30 -46.43,25.97 -46.28,25.63 -46.05,25.34 -45.81,25.05 -45.52,24.83 -45.23,24.60 -41.60,22.10 -37.97,19.61 -30.15,15.10 -22.33,10.59 -14.73,5.87 -7.12,1.15 -3.90,0.01 -0.67,-1.12 -0.53,-1.19 -0.38,-1.25 -0.23,-1.28 -0.07,-1.31 0.08,-1.30 0.24,-1.29 0.39,-1.24 0.54,-1.19 0.67,-1.11 0.81,-1.03 0.92,-0.91 1.03,-0.80 1.11,-0.67 1.19,-0.53 1.24,-0.38 1.29,-0.23 1.30,-0.07 1.31,0.08 1.28,0.23 1.25,0.39 1.18,0.53 1.12,0.68 1.02,0.80 0.92,0.93 0.80,1.02 0.67,1.12 0.67,1.12 L 0.67,1.12 Z"></path></g><g transform="translate(340 139) rotate(0 0 0.5)" stroke="none"><path fill="#1e1e1e" d="M 1.25,-0.39 Q 1.25,-0.39 1.27,-0.07 1.29,0.23 1.16,0.52 1.03,0.80 0.78,1.00 0.53,1.19 0.22,1.25 -0.07,1.31 -0.37,1.21 -0.67,1.12 -0.90,0.90 -1.12,0.67 -1.21,0.37 -1.31,0.07 -1.25,-0.23 -1.19,-0.53 -1.00,-0.78 -0.80,-1.03 -0.52,-1.16 -0.23,-1.29 0.07,-1.27 0.39,-1.25 0.65,-1.09 0.92,-0.92 1.09,-0.65 L 1.25,-0.39 Z"></path></g><g transform="translate(374 128) rotate(0 0 0.5)" stroke="none"><path fill="#1e1e1e" d="M 1.25,-0.39 Q 1.25,-0.39 1.27,-0.07 1.29,0.23 1.16,0.52 1.03,0.80 0.78,1.00 0.53,1.19 0.22,1.25 -0.07,1.31 -0.37,1.21 -0.67,1.12 -0.90,0.90 -1.12,0.67 -1.21,0.37 -1.31,0.07 -1.25,-0.23 -1.19,-0.53 -1.00,-0.78 -0.80,-1.03 -0.52,-1.16 -0.23,-1.29 0.07,-1.27 0.39,-1.25 0.65,-1.09 0.92,-0.92 1.09,-0.65 L 1.25,-0.39 Z"></path></g><g transform="translate(133.5 127) rotate(0 8.5 1)" stroke="none"><path fill="#1e1e1e" d="M -0.31,1.27 Q -0.31,1.27 -1.65,1.71 -2.98,2.16 -3.30,2.03 -3.61,1.91 -3.89,1.72 -4.17,1.53 -4.40,1.27 -4.62,1.01 -4.78,0.71 -4.94,0.41 -5.02,0.08 -5.10,-0.24 -5.10,-0.58 -5.09,-0.92 -5.01,-1.25 -4.93,-1.58 -4.77,-1.88 -4.61,-2.18 -4.38,-2.43 -4.16,-2.69 -3.88,-2.88 -3.60,-3.07 -3.28,-3.19 -2.96,-3.31 -2.62,-3.35 -2.29,-3.39 -1.95,-3.35 -1.61,-3.31 0.26,-3.51 2.13,-3.72 4.97,-3.74 7.82,-3.76 11.44,-3.34 15.06,-2.92 17.89,-0.55 20.73,1.81 20.83,1.99 20.94,2.18 20.98,2.39 21.02,2.60 20.99,2.81 20.96,3.02 20.86,3.21 20.77,3.40 20.62,3.55 20.47,3.70 20.28,3.79 20.09,3.89 19.87,3.91 19.66,3.94 19.46,3.90 19.25,3.86 19.06,3.76 18.88,3.65 18.74,3.49 18.59,3.33 18.51,3.14 18.43,2.94 18.41,2.73 18.39,2.52 18.45,2.31 18.50,2.11 18.61,1.93 18.73,1.75 18.89,1.62 19.06,1.48 19.26,1.41 19.46,1.34 19.67,1.33 19.88,1.33 20.09,1.39 20.29,1.45 20.46,1.58 20.63,1.70 20.76,1.88 20.88,2.05 20.94,2.25 21.00,2.45 21.00,2.67 20.99,2.88 20.92,3.08 20.84,3.28 20.71,3.44 20.58,3.61 20.40,3.72 20.22,3.84 20.01,3.89 19.81,3.94 19.59,3.92 19.38,3.90 19.19,3.82 18.99,3.73 18.83,3.59 18.68,3.45 18.68,3.45 18.68,3.45 16.64,2.77 14.60,2.09 11.23,1.96 7.86,1.83 5.07,1.85 2.29,1.88 0.78,1.86 -0.71,1.85 -1.84,2.00 -2.98,2.16 -3.30,2.03 -3.61,1.91 -3.89,1.72 -4.17,1.53 -4.40,1.27 -4.62,1.01 -4.78,0.71 -4.94,0.41 -5.02,0.08 -5.10,-0.24 -5.10,-0.58 -5.09,-0.92 -5.01,-1.25 -4.93,-1.58 -4.77,-1.88 -4.61,-2.18 -4.38,-2.43 -4.16,-2.69 -3.88,-2.88 -3.60,-3.07 -3.28,-3.19 -2.96,-3.31 -2.62,-3.35 -2.29,-3.39 -1.95,-3.35 -1.61,-3.31 -0.64,-2.29 0.31,-1.27 0.46,-1.21 0.61,-1.16 0.74,-1.07 0.87,-0.98 0.97,-0.86 1.08,-0.74 1.15,-0.60 1.22,-0.46 1.26,-0.30 1.30,-0.15 1.30,0.00 1.30,0.16 1.26,0.31 1.22,0.46 1.15,0.60 1.07,0.74 0.97,0.86 0.86,0.98 0.73,1.07 0.60,1.16 0.45,1.22 0.30,1.27 0.15,1.29 -0.00,1.31 -0.16,1.29 -0.31,1.27 -0.31,1.27 L -0.31,1.27 Z"></path></g></svg>
